<svg width="360" height="80" xmlns="http://www.w3.org/2000/svg" xmlns:xlink="http://www.w3.org/1999/xlink">
 <style type="text/css">.st0{opacity:0;fill:#4D4D4D;}
	.st1{clip-path:url(#XMLID_41_);fill:#00A0DB;}
	.st2{opacity:0;}
	.st3{fill:#D9E021;}
	.st4{fill:#00A0DB;}</style>
 <g>
  <title>background</title>
  <rect fill="none" id="canvas_background" height="402" width="582" y="-1" x="-1"/>
 </g>
 <g>
  <title>Layer 1</title>
  <g stroke="null" id="Layer_1">
   <g stroke="null" id="XMLID_630_">
    <rect stroke="null" x="-19.999964" y="-6.888881" height="88.888881" width="88.888881" class="st0" id="XMLID_641_"/>
    <g stroke="null" id="XMLID_636_">
     <defs stroke="null" transform="translate(1,0) translate(1,0) translate(9,0) translate(9,2) translate(360,80) scale(1.086111068725586) translate(-360,-80) translate(339.7442626953125,75.49872589111328) scale(1.0153452157974243) translate(-339.7442626953125,-75.49872589111328) translate(342.77081298828125,74.3576889038086) scale(1.007556676864624) translate(-342.77081298828125,-74.3576889038086) ">
      <path stroke="null" d="m39.8,26.8c-0.5,-1.2 -1.4,-2 -2.7,-2.6l-5.7,-2.2c-4.7,2.2 -7.9,5.7 -9.8,10.6c-0.4,1 -0.7,2 -1,3.1c1.1,0 2.1,0.2 3.2,0.7l7.3,3c1.3,0.5 2.5,0.5 3.7,0c1.2,-0.5 2,-1.3 2.5,-2.6l2.5,-6.3c0.6,-1.2 0.5,-2.5 0,-3.7m-7.7,29.5l9.4,3.7c6.3,-0.5 11.2,-3.3 14.9,-8.4c-0.1,-0.5 -0.2,-1 -0.4,-1.6c-0.6,-1.2 -1.5,-2.1 -2.8,-2.6l-6.9,-2.8c-0.2,0.1 -0.4,0.1 -0.5,0.2c-0.2,0.1 -0.4,0.1 -0.7,0.1c-1.4,0 -2.5,-1.1 -2.5,-2.5c0,-1.4 1.1,-2.5 2.5,-2.5c1.2,0 2.1,0.8 2.4,1.9l6.8,2.8c1.2,0.5 2.5,0.5 3.8,0c0.6,-0.3 1.1,-0.6 1.5,-1c1,-5.6 -0.2,-10.6 -3.5,-15.2l-11.1,-4.6l1,-2.4l0.2,-0.5c-3.3,-1 -6.9,-1.2 -10.3,-0.4l2.4,1c2.1,0.7 3.6,2.2 4.5,4.2c0.9,2 1,4 0.2,6l-2.6,6.3c-0.8,2 -2.3,3.4 -4.3,4.2c-2,0.8 -4.1,0.8 -6.1,0l-7.3,-3c-3,-1 -2.8,0.2 -2.5,2.6c0.3,2.9 1.1,5.6 2.6,8.2c2,3.5 5.1,6.4 8.7,8.1" id="XMLID_637_"/>
     </defs>
     <use stroke="null" x="18.247655" y="1.841432" transform="matrix(1.1111110120172003,0,0,1.1111110120172003,-40.275135081467,-8.934916664374526) " id="svg_1" fill="#00A0DB" xlink:href="#XMLID_637_"/>
     <clipPath stroke="null" transform="translate(1,0) translate(1,0) translate(9,0) translate(9,2) translate(360,80) scale(1.086111068725586) translate(-360,-80) translate(339.7442626953125,75.49872589111328) scale(1.0153452157974243) translate(-339.7442626953125,-75.49872589111328) translate(342.77081298828125,74.3576889038086) scale(1.007556676864624) translate(-342.77081298828125,-74.3576889038086) " id="XMLID_41_">
      <use stroke="null" id="svg_2" xlink:href="#XMLID_637_"/>
     </clipPath>
     <rect stroke="null" height="46.44444" width="45.555551" class="st1" y="15.000006" x="1.777812" id="XMLID_640_"/>
    </g>
    <g stroke="null" class="st2" id="XMLID_631_">
     <rect stroke="null" x="-19.999964" y="-6.888881" height="22.22222" width="22.22222" class="st3" id="XMLID_635_"/>
     <rect stroke="null" y="-6.888881" height="22.22222" width="22.22222" class="st3" x="46.666696" id="XMLID_634_"/>
     <rect stroke="null" x="-19.999964" height="22.22222" width="22.22222" class="st3" y="59.77778" id="XMLID_633_"/>
     <rect stroke="null" height="22.22222" width="22.22222" class="st3" y="59.77778" x="46.666696" id="XMLID_632_"/>
    </g>
   </g>
   <g stroke="null" id="XMLID_80_">
    <rect stroke="null" y="-6.888881" height="88.888881" width="333.333304" class="st0" x="46.666696" id="XMLID_560_"/>
    <g stroke="null" id="XMLID_86_">
     <g stroke="null" id="XMLID_233_">
      <path stroke="null" d="m338.777781,50.666669l-16.888887,0l0,-3.222222l3,-3.222222c5.111111,-5.222222 8.11111,-8.666666 8.11111,-12.222221c0,-2.333333 -1.222222,-4.222222 -4.222222,-4.222222c-2,0 -3.777777,1 -5,1.888889l-1.444444,-3.777777c1.666667,-1.222222 4.444444,-2.444444 7.555555,-2.444444c5.777777,0 8.444444,3.666666 8.444444,7.999999c0,4.666666 -3.222222,8.555555 -7.222222,12.444443l-2.222222,2.222222l0,0.111111l9.888888,0l0,4.444444z" class="st4" id="XMLID_234_"/>
     </g>
     <g stroke="null" id="XMLID_230_">
      <path stroke="null" d="m352.333336,36.333337c3,0.666667 5.444444,3.111111 5.444444,6.666666c0,4.444444 -3.555555,7.999999 -9.888888,7.999999c-2.888889,0 -5.444444,-0.777778 -6.777777,-1.666667l1.222222,-3.888889c1,0.666667 3.222222,1.444444 5.222222,1.444444c3.222222,0 4.888888,-2 4.888888,-4.111111c0,-3 -2.666666,-4.444444 -5.555555,-4.444444l-1.777778,0l0,-3.666666l1.666667,0c2.111111,0 4.777777,-1.111111 4.777777,-3.777777c0,-1.888889 -1.222222,-3.222222 -3.777777,-3.222222c-1.888889,0 -3.666666,0.777778 -4.666666,1.444444l-1.111111,-3.777777c1.444444,-0.888889 4.111111,-1.777778 6.999999,-1.777778c5.222222,0 7.888888,3 7.888888,6.555555c0,2.777778 -1.666667,5.111111 -4.555555,6.222222l0,0z" class="st4" id="XMLID_231_"/>
     </g>
     <g stroke="null" id="XMLID_87_">
      <path stroke="null" d="m68.888917,27.444449c1.444444,-0.333333 4.333333,-0.444444 7.11111,-0.444444c3.333333,0 5.444444,0.333333 7.222222,1.333333c1.666667,0.888889 2.888889,2.555555 2.888889,4.666666c0,2.111111 -1.222222,4.111111 -4,5.111111l0,0.111111c2.777778,0.777778 4.888888,2.777778 4.888888,5.888888c0,2.222222 -1,3.888889 -2.555555,5.111111c-1.777778,1.333333 -4.777777,2.222222 -9.555555,2.222222c-2.666666,0 -4.777777,-0.222222 -5.999999,-0.333333l0,-23.666665zm5.444444,9.11111l1.777778,0c2.888889,0 4.444444,-1.222222 4.444444,-3c0,-1.777778 -1.444444,-2.777778 -3.888889,-2.777778c-1.222222,0 -1.888889,0.111111 -2.333333,0.111111l0,5.666666zm0,10.666666c0.555556,0.111111 1.222222,0.111111 2.111111,0.111111c2.444444,0 4.666666,-0.888889 4.666666,-3.444444c0,-2.444444 -2.222222,-3.333333 -5,-3.333333l-1.888889,0l0,6.666666l0.111111,0z" class="st4" id="XMLID_226_"/>
      <path stroke="null" d="m90.666692,27.444449c1.777778,-0.333333 4.444444,-0.444444 7.333333,-0.444444c3.555555,0 6.111111,0.555556 7.888888,1.888889c1.444444,1.111111 2.222222,2.777778 2.222222,5c0,3.111111 -2.222222,5.111111 -4.333333,5.888888l0,0c1.666667,0.666667 2.666666,2.222222 3.222222,4.444444c0.777778,2.666666 1.555555,5.888888 2,6.777777l-5.666666,0c-0.444444,-0.666667 -1,-2.666666 -1.666667,-5.555555c-0.666667,-3 -1.666667,-3.777777 -3.888889,-3.888889l-1.666667,0l0,9.444444l-5.444444,0l0,-23.555553zm5.444444,10.222221l2.111111,0c2.777778,0 4.333333,-1.333333 4.333333,-3.444444c0,-2.222222 -1.555555,-3.333333 -4,-3.333333c-1.333333,0 -2.111111,0.111111 -2.444444,0.222222l0,6.555555z" class="st4" id="XMLID_223_"/>
      <path stroke="null" d="m118.111134,44.888892l-1.777778,6.111111l-5.666666,0l7.444444,-23.999998l7.222222,0l7.555555,23.999998l-5.888888,0l-1.888889,-6.111111l-6.999999,0zm6.222222,-4l-1.555555,-5.111111c-0.444444,-1.444444 -0.888889,-3.222222 -1.222222,-4.666666l-0.111111,0c-0.333333,1.444444 -0.666667,3.222222 -1.111111,4.666666l-1.444444,5.111111l5.444444,0z" class="st4" id="XMLID_220_"/>
      <path stroke="null" d="m141.666688,27.111116l0,23.999998l-5.555555,0l0,-23.999998l5.555555,0z" class="st4" id="XMLID_218_"/>
      <path stroke="null" d="m146.444465,51.000003l0,-23.888887l6.444444,0l5,8.777777c1.444444,2.555555 2.888889,5.555555 4,8.222221l0.111111,0c-0.333333,-3.222222 -0.444444,-6.444444 -0.444444,-9.999999l0,-6.999999l5,0l0,23.999998l-5.777777,0l-5.222222,-9.222221c-1.444444,-2.555555 -3,-5.666666 -4.222222,-8.444444l-0.111111,0c0.111111,3.111111 0.222222,6.555555 0.222222,10.444444l0,7.222222l-5,0l0,-0.111111z" class="st4" id="XMLID_216_"/>
      <path stroke="null" d="m178.777796,45.444448c1.444444,0.777778 3.777777,1.444444 6.111111,1.444444c2.555555,0 3.888889,-1 3.888889,-2.555555c0,-1.444444 -1.111111,-2.333333 -4.111111,-3.333333c-4,-1.333333 -6.666666,-3.555555 -6.666666,-7.11111c0,-4.111111 3.444444,-7.222222 9.222221,-7.222222c2.777778,0 4.777777,0.555556 6.222222,1.222222l-1.222222,4.333333c-1,-0.444444 -2.666666,-1.111111 -5.111111,-1.111111c-2.333333,0 -3.555555,1.111111 -3.555555,2.333333c0,1.555555 1.333333,2.222222 4.555555,3.333333c4.333333,1.555555 6.333333,3.777777 6.333333,7.11111c0,4 -3.111111,7.444444 -9.777777,7.444444c-2.777778,0 -5.555555,-0.666667 -6.888888,-1.444444l1,-4.444444z" class="st4" id="XMLID_214_"/>
      <path stroke="null" d="m202.777794,31.666671l-6.555555,0l0,-4.555555l18.666665,0l0,4.555555l-6.666666,0l0,19.444443l-5.555555,0l0,-19.444443l0.111111,0z" class="st4" id="XMLID_212_"/>
      <path stroke="null" d="m221.000014,44.888892l-1.777778,6.111111l-5.666666,0l7.444444,-23.999998l7.222222,0l7.555555,23.999998l-5.888888,0l-1.888889,-6.111111l-6.999999,0zm6.111111,-4l-1.555555,-5.111111c-0.444444,-1.444444 -0.888889,-3.222222 -1.222222,-4.666666l-0.111111,0c-0.333333,1.444444 -0.777778,3.222222 -1.111111,4.666666l-1.444444,5.111111l5.444444,0z" class="st4" id="XMLID_209_"/>
      <path stroke="null" d="m240.666679,31.666671l-6.555555,0l0,-4.555555l18.666665,0l0,4.555555l-6.666666,0l0,19.444443l-5.555555,0l0,-19.444443l0.111111,0z" class="st4" id="XMLID_205_"/>
      <path stroke="null" d="m261.333344,27.111116l0,23.999998l-5.555555,0l0,-23.999998l5.555555,0z" class="st4" id="XMLID_201_"/>
      <path stroke="null" d="m288.333342,38.777782c0,7.888888 -4.888888,12.666666 -11.999999,12.666666c-7.222222,0 -11.444443,-5.333333 -11.444443,-12.222221c0,-7.222222 4.666666,-12.555554 11.888888,-12.555554c7.555555,0 11.555555,5.555555 11.555555,12.11111zm-17.555554,0.333333c0,4.666666 2.222222,7.999999 5.888888,7.999999c3.666666,0 5.888888,-3.444444 5.888888,-8.11111c0,-4.333333 -2.111111,-7.999999 -5.888888,-7.999999c-3.666666,0 -5.888888,3.444444 -5.888888,8.11111z" class="st4" id="XMLID_90_"/>
      <path stroke="null" d="m292.000008,51.000003l0,-23.888887l6.444444,0l5,8.777777c1.444444,2.555555 2.888889,5.555555 4,8.222221l0.111111,0c-0.333333,-3.222222 -0.444444,-6.444444 -0.444444,-9.999999l0,-6.999999l5,0l0,23.999998l-5.777777,0l-5.222222,-9.222221c-1.444444,-2.555555 -3,-5.666666 -4.222222,-8.444444l-0.111111,0c0.111111,3.111111 0.222222,6.555555 0.222222,10.444444l0,7.222222l-5,0l0,-0.111111z" class="st4" id="XMLID_88_"/>
     </g>
    </g>
    <g stroke="null" class="st2" id="XMLID_81_">
     <rect stroke="null" height="22.22222" width="22.22222" class="st3" y="1.444452" x="46.666696" id="XMLID_85_"/>
     <rect stroke="null" height="22.22222" width="22.22222" class="st3" y="1.444452" x="357.77778" id="XMLID_84_"/>
     <rect stroke="null" height="22.22222" width="22.22222" class="st3" y="51.444447" x="46.666696" id="XMLID_83_"/>
     <rect stroke="null" height="22.22222" width="22.22222" class="st3" y="51.444447" x="357.77778" id="XMLID_82_"/>
    </g>
   </g>
  </g>
  <g id="Layer_2"/>
 </g>
</svg>