<?xml version="1.0" encoding="utf-8"?>
<!-- Generator: Adobe Illustrator 19.0.0, SVG Export Plug-In . SVG Version: 6.00 Build 0)  -->
<svg version="1.1" id="Layer_1" xmlns="http://www.w3.org/2000/svg" xmlns:xlink="http://www.w3.org/1999/xlink" x="0px" y="0px"
	 viewBox="0 0 664 745" style="enable-background:new 0 0 664 745;" xml:space="preserve">
<style type="text/css">
	.st0{fill:#FFFFFF;}
	.st1{fill:#738DBA;}
	.st2{fill:#F4F5F5;}
	.st3{fill:#A5B6D6;}
	.st4{fill:url(#XMLID_39_);}
	.st5{fill:url(#XMLID_40_);}
</style>
<path id="XMLID_2798_" class="st0" d="M543.7,556.6c-5.3-1.3-0.5-5.1-1.8-7.8c-8.2-16.5-15.8-33.4-23.6-50.2
	c-1.7-3.6-3.6-7.1-8.5-6.8c2.6-9-0.9-16.7-4.7-24.7c-18.6-39.7-36.8-79.7-55.3-119.4c-3.9-8.4-5.9-18.8-17.5-21
	c-0.7-0.1-1.5-0.8-1.8-1.5c-3.1-6.9-8.8-5.8-14.9-5.8c-52.9,0.2-105.8,0.3-158.7,0c-6.2,0-11.5-0.6-14.9,5.9
	c-0.9,1.8-3.8,3.3-5.9,3.5c-4.1,0.4-5.5,2.6-7.1,6.1c-15.8,34.7-31.8,69.2-47.6,103.9c-6.7,14.6-13,29.2-19.6,43.8
	c-0.1,1,0.2,2.3-0.3,3.1c-6,8.6-8.9,18.7-13.9,27.9c-4.2,7.8-7.4,16.2-11,24.3c-16.9,36-33.8,72-50.6,108c-3,6.4-0.6,10.2,6.4,10.4
	c11.6,0.2,23.1,0.1,34.7,0c15.9,0,31.8-0.1,47.7-0.1c47.3,0,94.6,0.1,142,0.2c3.2,0,5.7-0.5,8.1-3.4c6.8-8.1,16.1-8.1,23-0.2
	c2.1,2.4,4,3.6,7.2,3.6c49.7-0.1,99.4-0.2,149.1-0.3c15.5,0,31.1,0.1,46.6,0.1c9.2,0.1,18.3,0.1,27.5,0.1c10.2,0,12.5-3.8,8.2-13.1
	c-5.8-12.6-11.6-25.2-17.4-37.7c-7.4-15.9-14.7-31.8-22.2-47.6C546.6,557.2,546.4,552.1,543.7,556.6z M248.9,308.4
	c57.2,0.1,114.5,0.2,171.7,0.2c0.8,0,1.6,0.1,2.4-0.1c4.1-1.1,6.8-3.1,4.3-7.8c-8.4-21.4-18.9-41.8-28.4-62.7
	c-2.8-6.1-4.9-12.6-9.3-17.9c-0.3-1.5-0.3-3.2-0.9-4.6c-16.4-35.5-32.8-71.1-49.3-106.6c-0.8-1.6-1.2-3.9-3.3-4
	c-2.7-0.2-2.9,2.5-3.8,4.4c-10.9,23.6-22,47.2-32.5,70.9c-5.4,12.2-12.2,23.8-15.9,36.7c-0.5,0.5-1.3,1-1.6,1.6
	c-11.2,24.4-22.5,48.8-33.6,73.3c-1.4,3.2-3.9,6.3-2.6,10.2c-0.1,0.4-0.2,0.8-0.1,1.2C243.8,307,244.1,307.4,248.9,308.4z"/>
<path id="XMLID_2667_" class="st1" d="M245.9,303.3c-0.1-0.4,0-0.8,0.1-1.2c10.1-2.6,20.4-4.5,30.2-8.5c8.2-3.3,12.3-8.8,13.8-17.3
	c2.6-15,3-30.1,3.3-45.3c0.1-7.5-2.7-11.8-9.4-14.1c3.7-12.9,10.5-24.5,15.9-36.7c10.5-23.8,21.6-47.3,32.5-70.9
	c0.8-1.8,1.1-4.5,3.8-4.4c2.1,0.1,2.5,2.4,3.3,4c16.5,35.5,32.9,71,49.3,106.6c0.6,1.4,0.6,3,0.9,4.6c-2.3,0.7-3.5,2.3-3.5,4.6
	c0.2,17.3-1.4,34.6,2.3,51.7c1.6,7.1,4.1,13.6,11.8,16.4c8.8,3.2,17.6,6.7,27.1,7.8c2.5,4.8-0.2,6.7-4.3,7.8
	c-0.7,0.2-1.6,0.1-2.4,0.1c-57.2-0.1-114.5-0.2-171.7-0.2C248.6,306.3,247.6,304.6,245.9,303.3z"/>
<path id="XMLID_2666_" class="st2" d="M161.8,482.5c4.2-0.8,5.9,0.5,6.5,5.1c3.7,27.6,4.9,55.2,0.1,82.8c-4.5,26,0,51.6,5,77
	c0.6,2.8,0.9,5.7,1.3,8.5c-15.9,0-31.8,0.1-47.7,0.1c1.3-11.4,1.5-22.9,1.8-34.4c0.2-8.8,2-17.6,2.3-26.4
	c0.6-19.3,4.2-38.3,5.4-57.6c3.6-8.1,6.8-16.5,11-24.3c5-9.1,7.9-19.3,13.9-27.9C162,484.8,161.7,483.5,161.8,482.5z"/>
<path id="XMLID_2665_" class="st2" d="M504.1,655.9c2.6-22.9,9.1-45.3,6.9-68.6c-1.4-15.9-3.2-31.8-4.3-47.7
	c-1.2-16,1.1-31.9,3.1-47.8c4.9-0.3,6.8,3.2,8.5,6.8c7.8,16.7,15.4,33.6,23.6,50.2c1.4,2.7-3.4,6.5,1.8,7.8c3.7,33,6.3,66.2,7,99.4
	C535.2,656,519.7,656,504.1,655.9z"/>
<path id="XMLID_2662_" class="st3" d="M283.9,217c6.7,2.3,9.5,6.6,9.4,14.1c-0.3,15.2-0.7,30.3-3.3,45.3c-1.4,8.5-5.6,14-13.8,17.3
	c-9.8,4-20,5.8-30.2,8.5c-1.3-4,1.2-7.1,2.6-10.2c11.1-24.5,22.3-48.9,33.6-73.3C282.6,218,283.3,217.5,283.9,217z"/>
<path id="XMLID_2661_" class="st3" d="M427.3,300.7c-9.5-1.1-18.2-4.6-27.1-7.8c-7.7-2.8-10.3-9.3-11.8-16.4
	c-3.8-17.1-2.1-34.4-2.3-51.7c0-2.4,1.2-3.9,3.5-4.6c4.4,5.2,6.5,11.8,9.3,17.9C408.4,258.9,418.9,279.3,427.3,300.7z"/>
<path id="XMLID_2660_" class="st3" d="M245.9,303.3c1.7,1.3,2.7,3,3,5.1C244.1,307.4,243.8,307,245.9,303.3z"/>
<path id="XMLID_2626_" class="st2" d="M295.5,375.5c1-5-1.3-8-0.1-11.6c4.7-14,13.5-17,25.2-8c2.1,1.6,4.2,3.1,6.2,4.8
	c6.9,5.7,14.3,6,21.5,0.6c2.9-2.2,5.7-4.7,8.7-6.8c10.8-7.6,22.1-2.4,22.8,10.9c0.4,6.8,2,7.1,7,3.6c10.7-7.5,21.1-15.1,21.9-29.8
	c0.2-3,2.7-3.8,5.2-3.5c4.7,0.6,10.7,0.9,11.3,6.5c0.6,5.8,4.2,7.8,8,10.5c7.7,5.5,14.6,11.5,12.9,22.5c0,0.3-0.1,0.6,0,0.8
	c7.3,11.5,8.9,24.8,11.5,37.8c0.3,1.8,2.1,3.3,2.2,5c2.5,28.3,17.1,55,10.1,84.5c-1.4,6,1.3,11.9,2.1,17.9c1,7.4,1.1,14.5-0.3,21.9
	c-2.7,13.9-4.5,27.7-2.3,42.1c2.1,13.6,0.2,27.3-4.8,40.3c-8.2,20.8-30.5,26-51.9,16.3c-23.2-10.5-36.8-30.1-44-53.9
	c-3.6-11.7-8-22.6-15.5-32.3c-1.1-1.5-2.1-3.1-3.4-4.3c-10.2-9.2-22.2-7.2-31,3.5c-10.9,13.1-12.9,29.6-19.7,44.2
	c-8.6,18.5-20.5,34.2-39.9,42.8c-10.2,4.6-20.8,5.5-31.4,3c-11.2-2.7-18-10.8-21.2-21.4c-4.1-13.1-6.4-26.3-3.9-40.3
	c2.2-12.3,1.6-24.9-1.9-37.3c-1.8-6.3-2.6-12.9-1-19.3c3.9-15.6-0.1-31.2,0.1-46.7c0-4.2-0.5-8.7,1.6-12.4
	c7.6-13.6,4.5-29.4,9.4-43.3c3.7-10.4,6.5-20.9,7.9-31.8c0.3-2.3,1.1-4.7,2.2-6.7c2.9-4.9,5.1-9.3,4.9-15.7c-0.3-7.4,6-12.6,12-16.6
	c4.1-2.8,7.9-5.1,8.8-11c0.9-5.9,7-5.6,11.5-6.2c5.1-0.7,4.4,3.7,5.2,7c2.2,9.1,8.2,15.8,15.3,21.5
	C283.5,368.3,289.3,371.5,295.5,375.5z M398.8,599.3c-0.1-0.2-0.1-0.4-0.2-0.6c-0.1-0.1-0.2-0.1-0.4-0.2
	C398.4,598.8,398.6,599.1,398.8,599.3c0.2,0.1,0.2,0.4,0.4,0.5c0.1,0.1,0.3,0.1,0.5,0.1C399.3,599.7,399,599.5,398.8,599.3z
	 M281.9,607.2c-3,0-4.6,2.4-6.3,4.3c-6.2,6.7-13.9,11.1-22.1,14.8c-11.6,5.1-20.9,3.4-30.1-5.5c-4.1-4-8.2-7.9-11.9-12.5
	c2,8.5,5.1,16.4,12.3,21.7c6.2,4.5,13.1,8.4,21.1,6.7C261.9,632.8,272.6,620.8,281.9,607.2c0.2-0.1,0.5-0.1,0.6-0.3
	c0.1-0.1,0.1-0.3,0.1-0.5C282.4,606.7,282.1,606.9,281.9,607.2z M270.7,600.7c-3.1-0.1-5.4,1.7-8.1,2.8c-18.4,7.2-33.9,4.7-44.7-7.5
	c-2.6-2.9-4.8-6.1-7.1-9.2c-0.2-0.1-0.4-0.3-0.6-0.4c0.2,0.1,0.5,0.2,0.7,0.3c1.7,16.3,12.3,25.2,26.3,31.2
	c11.6,4.9,19.3-2.6,27-9.3c2.5-2.2,4.6-5,6.9-7.5c0.2-0.3,0.4-0.7,0.6-1C271.3,600.2,271,600.5,270.7,600.7z M218.9,572.3
	c-0.3-0.2-0.6-0.4-0.9-0.6c0.2,0.3,0.4,0.6,0.6,0.9c-0.3,4.5,3,7.5,5.6,9.9c16,15.3,21.3,17.6,38.9,8c9.5-5.2,16.9-12.9,23.6-21.3
	c0.2-0.1,0.4-0.1,0.5-0.3c0.1-0.1,0.1-0.3,0.1-0.4c-0.2,0.2-0.4,0.5-0.6,0.7c-3.6-0.5-6.6,1.3-9.7,2.6
	C257.6,579.6,238.3,582,218.9,572.3z M209.1,532.5c-0.3,6.2,2.2,11.3,6.4,15.5c20.6,20.7,32,21,59.1,12.3
	c16.1-5.2,27.8-17.9,42.7-24.9c7.4-3.5,5.4-8.3,3.6-12.6c-2.4-5.8-6.7-0.7-10-0.2c-2.7,0.5-5.3,2.2-7.9,3.6
	c-18.2,9.6-37.4,13.3-57.9,11.5c-9.9-0.9-18.9-4-27.2-9.4c-2.2-1.4-3.5-5.7-6.9-3.8C208.3,526,209.4,529.6,209.1,532.5z
	 M256.6,525.1c18-1.6,38.8-8.8,59.7-15.8c3.2-1.1,5.8-13.9,3.1-17.1c-3.5-4.2-6.2,0.8-9.2,1.9c-1.7,0.7-3.3,1.7-5,2.4
	c-27.8,10.7-67.4,5.9-86.9-23c-1.2-1.8-2.1-4.8-4.8-4.5c-1.9,0.2-2.1,2.8-2.5,4.5C205.5,497.3,228,525.3,256.6,525.1z M463.4,533.1
	c0-2.9-1.9-8.7-2.8-9c-1.6-0.5-2.4,0.8-3.3,1.6c-17.5,14.4-38,13.1-58.5,11.2c-13.1-1.2-24.1-8.5-36-13.4c-4.5-1.8-7.1-2.5-9.5,3.3
	c-2.1,5.1-1.4,6.9,3.2,9.6c17.3,10.1,33,22.9,53.5,27.6c18.7,4.3,32.8-2.1,45.4-14.6C459.8,545,462.7,539.4,463.4,533.1z
	 M414.7,525.1c13.5,0.1,18.2-1.6,27.6-8.5c14.5-10.7,22.6-28.7,18.8-42.2c-0.5-1.9-0.4-4.8-2.7-5.4c-2.4-0.5-3.1,2.2-4.4,3.8
	c-8.4,10.2-17.3,19.9-30.4,24.1c-21,6.6-41.7,7.5-61.9-3c-1.5-0.8-3.1-2.4-5-0.9c-2.2,1.9-0.4,16.5,2.4,17.4
	C378.4,517.1,397.8,523.6,414.7,525.1z M224.1,433c0.8,9.8,2.7,17.9,5.4,25.8c4.4,12.9,12.5,21.7,26.1,24.6
	c19.9,4.2,39.4,3.6,58.4-4.9c5.6-2.5,4.4-6.5,4.1-10.3c-0.3-4.5-4.1-3-6.8-3.1c-11-0.3-22.1,1.6-32.9-1
	C258,459.1,240,449.4,224.1,433z M448,433.2c-5.4,4.7-9.1,8.3-13.2,11.4c-20.9,15.8-44.3,23.2-70.7,20.6c-2.9-0.3-7.5-2.1-7.7,3.7
	c-0.1,4.2-1.2,8.2,4.7,10.9c16.9,7.5,34.1,6.8,51.7,4.3c12.6-1.8,21.9-8.2,27.4-19.8C444.7,455,446.3,445,448,433.2z M232.4,390
	c-1.8,6.8-3.1,11.6-1.8,17.1c4.1,17.5,32.5,40.5,50.6,40.6c9.5,0.1,18.9-0.4,28.4,0.1c6.8,0.4,9-1.4,9.1-8.6c0-6.7-3.4-7.9-8.2-8.8
	C280.6,425.3,253,415.8,232.4,390z M439,391.4c-5.4,5-10.5,10.3-16.1,14.9c-17.1,14.3-38,19.4-59.2,23.8c-2.3,0.5-4.7,0.5-5.8,3.2
	c-3.5,8.5,0.5,14.4,9.6,14.4c5.8,0,11.6-0.4,17.3,0.1c10.5,1,19.7-2.1,28-8.2c5.9-4.3,12-8.6,17.3-13.5
	C441.6,415.8,444.6,403.1,439,391.4z M318.1,408.7c0.8-4.4-1.6-6.3-5.7-7.5c-22-6.9-41.2-18.1-55.7-36.3c-2.7-3.3-5.5-3.3-8.8-0.8
	c-9,6.7-9.5,11.8-1.1,20.7c17.9,19.1,42.1,24.4,66.3,29.7C317.5,415.4,318.5,412.7,318.1,408.7z M357.8,408.4
	c0.5,2.3-1.4,6.8,3.8,5.6c23.4-5.3,46.6-11.1,63.8-29.8c8.4-9.1,7.5-14.8-2.8-21.3c-2.8-1.7-4.2-2-6.4,0.8
	c-13.7,17.4-31.7,28.9-52.4,36.2C359.4,401.5,356.8,403.3,357.8,408.4z M385.2,568.5c5.4,8.7,13.4,14.4,21,20.5
	c20.3,16.3,40.2,0.4,47.7-17.4C429.8,584.2,407.5,577.8,385.2,568.5z M401.8,600.7c8.2,14.9,21.3,20.4,34.1,16.6
	c12.1-3.5,27.8-22.3,24.5-31.3C446.6,611.8,425.6,610.8,401.8,600.7z M459.7,609.7c-2.7,0.7-3.3,3.2-4.7,5
	c-11.3,14.6-24.3,17.9-40.7,9.7c-6.1-3-11.7-6.9-16.9-11.5c-1.2-1-2.2-3.3-4.4-1.4c5.6,9,17.6,19.3,26.3,22.8
	C437.3,641.3,457.7,628.9,459.7,609.7z"/>
<linearGradient id="XMLID_39_" gradientUnits="userSpaceOnUse" x1="166.58" y1="395.6647" x2="505.9835" y2="735.0682">
	<stop  offset="0" style="stop-color:#7CA5BE"/>
	<stop  offset="1" style="stop-color:#ABB8B7"/>
</linearGradient>
<path id="XMLID_74_" class="st4" d="M504.1,655.9c-49.7,0.1-99.4,0.1-149.1,0.3c-3.2,0-5.1-1.2-7.2-3.6c-6.9-7.9-16.1-7.9-23,0.2
	c-2.4,2.9-4.9,3.4-8.1,3.4c-47.3-0.1-94.6-0.1-142-0.2c-0.4-2.8-0.8-5.7-1.3-8.5c-5.1-25.5-9.5-51-5-77c4.8-27.7,3.6-55.2-0.1-82.8
	c-0.6-4.6-2.3-6-6.5-5.1c6.5-14.6,12.9-29.3,19.6-43.8c15.8-34.6,31.9-69.2,47.6-103.9c1.6-3.4,3-5.7,7.1-6.1c2.1-0.2,5-1.7,5.9-3.5
	c3.4-6.5,8.7-5.9,14.9-5.9c52.9,0.3,105.8,0.3,158.7,0c6.1,0,11.8-1,14.9,5.8c0.3,0.6,1.1,1.4,1.8,1.5c11.6,2.2,13.6,12.6,17.5,21
	c18.5,39.8,36.7,79.7,55.3,119.4c3.7,8,7.3,15.7,4.7,24.7c-2,15.9-4.2,31.7-3.1,47.8c1.2,15.9,2.9,31.8,4.3,47.7
	C513.2,610.6,506.7,633.1,504.1,655.9z M295.5,375.5c-6.2-4-11.9-7.2-17-11.2c-7.1-5.6-13.1-12.3-15.3-21.5c-0.8-3.3-0.1-7.7-5.2-7
	c-4.5,0.6-10.6,0.3-11.5,6.2c-0.9,5.9-4.7,8.2-8.8,11c-6,4-12.3,9.2-12,16.6c0.2,6.4-2,10.8-4.9,15.7c-1.2,2-1.9,4.4-2.2,6.7
	c-1.4,10.9-4.2,21.4-7.9,31.8c-4.9,14-1.8,29.8-9.4,43.3c-2,3.7-1.5,8.2-1.6,12.4c-0.1,15.6,3.8,31.1-0.1,46.7
	c-1.6,6.5-0.8,13,1,19.3c3.5,12.3,4,24.9,1.9,37.3c-2.5,14-0.1,27.2,3.9,40.3c3.3,10.6,10,18.7,21.2,21.4c10.7,2.6,21.2,1.6,31.4-3
	c19.4-8.7,31.3-24.4,39.9-42.8c6.8-14.6,8.9-31.1,19.7-44.2c8.9-10.6,20.9-12.7,31-3.5c1.3,1.2,2.3,2.9,3.4,4.3
	c7.4,9.7,11.9,20.6,15.5,32.3c7.2,23.7,20.9,43.3,44,53.9c21.4,9.7,43.7,4.6,51.9-16.3c5.1-13,6.9-26.7,4.8-40.3
	c-2.2-14.4-0.4-28.2,2.3-42.1c1.4-7.3,1.4-14.5,0.3-21.9c-0.8-5.9-3.6-11.9-2.1-17.9c7-29.4-7.6-56.2-10.1-84.5
	c-0.2-1.7-1.9-3.3-2.2-5c-2.6-13-4.2-26.2-11.5-37.8c-0.1-0.2-0.1-0.5,0-0.8c1.8-11-5.1-17-12.9-22.5c-3.8-2.7-7.4-4.7-8-10.5
	c-0.6-5.6-6.6-5.9-11.3-6.5c-2.5-0.3-5,0.4-5.2,3.5c-0.9,14.7-11.2,22.3-21.9,29.8c-5,3.5-6.7,3.2-7-3.6
	c-0.7-13.3-12-18.5-22.8-10.9c-3,2.1-5.7,4.6-8.7,6.8c-7.2,5.4-14.6,5.1-21.5-0.6c-2-1.7-4.1-3.2-6.2-4.8c-11.7-8.9-20.5-6-25.2,8
	C294.1,367.5,296.5,370.5,295.5,375.5z M86,645.7c-3,6.4-0.6,10.2,6.4,10.4c11.6,0.2,23.1,0.1,34.7,0c1.3-11.4,1.5-22.9,1.8-34.4
	c0.2-8.8,2-17.6,2.3-26.4c0.6-19.3,4.2-38.3,5.4-57.6C119.7,573.7,102.8,609.7,86,645.7z M578.3,656.2c10.2,0,12.5-3.8,8.2-13.1
	c-5.8-12.6-11.6-25.2-17.4-37.7c-7.4-15.9-14.7-31.8-22.2-47.6c-0.2-0.5-0.5-5.6-3.1-1.1c3.7,33,6.3,66.2,7,99.4
	C559.9,656.1,569.1,656.2,578.3,656.2z M215.6,548c20.6,20.7,32,21,59.1,12.3c16.1-5.2,27.8-17.9,42.7-24.9
	c7.4-3.5,5.4-8.3,3.6-12.6c-2.4-5.8-6.7-0.7-10-0.2c-2.7,0.5-5.3,2.2-7.9,3.6c-18.2,9.6-37.4,13.3-57.9,11.5
	c-9.9-0.9-18.9-4-27.2-9.4c-2.2-1.4-3.5-5.7-6.9-3.8c-2.9,1.6-1.8,5.2-2,8C208.8,538.7,211.4,543.8,215.6,548z M316.3,509.3
	c3.2-1.1,5.8-13.9,3.1-17.1c-3.5-4.2-6.2,0.8-9.2,1.9c-1.7,0.7-3.3,1.7-5,2.4c-27.8,10.7-67.4,5.9-86.9-23c-1.2-1.8-2.1-4.8-4.8-4.5
	c-1.9,0.2-2.1,2.8-2.5,4.5c-5.5,23.8,17.1,51.8,45.6,51.7C274.7,523.5,295.5,516.3,316.3,509.3z M460.6,524.1
	c-1.6-0.5-2.4,0.8-3.3,1.6c-17.5,14.4-38,13.1-58.5,11.2c-13.1-1.2-24.1-8.5-36-13.4c-4.5-1.8-7.1-2.5-9.5,3.3
	c-2.1,5.1-1.4,6.9,3.2,9.6c17.3,10.1,33,22.9,53.5,27.6c18.7,4.3,32.8-2.1,45.4-14.6c4.5-4.5,7.4-10.2,8.1-16.4
	C463.4,530.2,461.5,524.4,460.6,524.1z M442.3,516.6c14.5-10.7,22.6-28.7,18.8-42.2c-0.5-1.9-0.4-4.8-2.7-5.4
	c-2.4-0.5-3.1,2.2-4.4,3.8c-8.4,10.2-17.3,19.9-30.4,24.1c-21,6.6-41.7,7.5-61.9-3c-1.5-0.8-3.1-2.4-5-0.9
	c-2.2,1.9-0.4,16.5,2.4,17.4c19.3,6.7,38.7,13.2,55.6,14.7C428.1,525.2,432.9,523.5,442.3,516.6z M229.5,458.8
	c4.4,12.9,12.5,21.7,26.1,24.6c19.9,4.2,39.4,3.6,58.4-4.9c5.6-2.5,4.4-6.5,4.1-10.3c-0.3-4.5-4.1-3-6.8-3.1
	c-11-0.3-22.1,1.6-32.9-1c-20.5-4.9-38.5-14.7-54.4-31.1C224.9,442.8,226.8,450.9,229.5,458.8z M434.8,444.6
	c-20.9,15.8-44.3,23.2-70.7,20.6c-2.9-0.3-7.5-2.1-7.7,3.7c-0.1,4.2-1.2,8.2,4.7,10.9c16.9,7.5,34.1,6.8,51.7,4.3
	c12.6-1.8,21.9-8.2,27.4-19.8c4.5-9.3,6.1-19.3,7.8-31.1C442.6,437.9,438.9,441.5,434.8,444.6z M230.6,407.1
	c4.1,17.5,32.5,40.5,50.6,40.6c9.5,0.1,18.9-0.4,28.4,0.1c6.8,0.4,9-1.4,9.1-8.6c0-6.7-3.4-7.9-8.2-8.8c-29.7-5.3-57.3-14.7-78-40.5
	C230.6,396.8,229.3,401.7,230.6,407.1z M422.9,406.3c-17.1,14.3-38,19.4-59.2,23.8c-2.3,0.5-4.7,0.5-5.8,3.2
	c-3.5,8.5,0.5,14.4,9.6,14.4c5.8,0,11.6-0.4,17.3,0.1c10.5,1,19.7-2.1,28-8.2c5.9-4.3,12-8.6,17.3-13.5
	c11.3-10.4,14.4-23.1,8.7-34.8C433.6,396.4,428.5,401.7,422.9,406.3z M312.4,401.2c-22-6.9-41.2-18.1-55.7-36.3
	c-2.7-3.3-5.5-3.3-8.8-0.8c-9,6.7-9.5,11.8-1.1,20.7c17.9,19.1,42.1,24.4,66.3,29.7c4.5,1,5.5-1.8,5.1-5.7
	C318.9,404.3,316.5,402.5,312.4,401.2z M361.6,413.9c23.4-5.3,46.6-11.1,63.8-29.8c8.4-9.1,7.5-14.8-2.8-21.3
	c-2.8-1.7-4.2-2-6.4,0.8c-13.7,17.4-31.7,28.9-52.4,36.2c-4.4,1.5-7,3.4-6,8.4C358.3,410.7,356.4,415.1,361.6,413.9z M406.2,589
	c20.3,16.3,40.2,0.4,47.7-17.4c-24.1,12.5-46.4,6.1-68.7-3.1C390.6,577.3,398.6,582.9,406.2,589z M286.7,569.3
	c-3.6-0.5-6.6,1.3-9.7,2.6c-19.3,7.7-38.7,10.1-58.1,0.4l-0.3,0.3c-0.3,4.5,3,7.5,5.6,9.9c16,15.3,21.3,17.6,38.9,8
	C272.6,585.4,279.9,577.6,286.7,569.3L286.7,569.3z M435.9,617.3c12.1-3.5,27.8-22.3,24.5-31.3c-13.9,25.8-34.9,24.8-58.6,14.7
	C410,615.6,423.1,621.1,435.9,617.3z M270.7,600.7c-3.1-0.1-5.4,1.7-8.1,2.8c-18.4,7.2-33.9,4.7-44.7-7.5c-2.6-2.9-4.8-6.1-7.1-9.2
	l0.1-0.1c1.7,16.3,12.3,25.2,26.3,31.2c11.6,4.9,19.3-2.6,27-9.3c2.5-2.2,4.6-5,6.9-7.4L270.7,600.7z M281.9,607.2
	c-3,0-4.6,2.4-6.3,4.3c-6.2,6.7-13.9,11.1-22.1,14.8c-11.6,5.1-20.9,3.4-30.1-5.5c-4.1-4-8.2-7.9-11.9-12.5
	c2,8.5,5.1,16.4,12.3,21.7c6.2,4.5,13.1,8.4,21.1,6.7C261.9,632.8,272.6,620.8,281.9,607.2L281.9,607.2z M455,614.7
	c-11.3,14.6-24.3,17.9-40.7,9.7c-6.1-3-11.7-6.9-16.9-11.5c-1.2-1-2.2-3.3-4.4-1.4c5.6,9,17.6,19.3,26.3,22.8
	c17.9,7,38.3-5.4,40.3-24.6C457,610.3,456.4,612.9,455,614.7z"/>
<path id="XMLID_2609_" class="st3" d="M281.9,607.2c0.2-0.2,0.5-0.5,0.7-0.7c0,0.2,0,0.4-0.1,0.5
	C282.4,607.1,282.1,607.1,281.9,607.2L281.9,607.2z"/>
<path id="XMLID_2608_" class="st3" d="M398.8,599.3c0.3,0.2,0.5,0.4,0.8,0.6c-0.2,0-0.4,0-0.5-0.1
	C399,599.7,398.9,599.5,398.8,599.3L398.8,599.3z"/>
<path id="XMLID_2607_" class="st3" d="M270.7,600.7c0.3-0.2,0.7-0.4,1-0.6c-0.2,0.3-0.4,0.7-0.6,1C271,601,270.7,600.7,270.7,600.7z
	"/>
<path id="XMLID_2606_" class="st3" d="M398.8,599.3c-0.2-0.2-0.4-0.4-0.6-0.6c0.1,0,0.3,0.1,0.4,0.2
	C398.7,598.9,398.7,599.1,398.8,599.3L398.8,599.3z"/>
<path id="XMLID_2605_" class="st3" d="M210.9,586.6c-0.2-0.1-0.5-0.2-0.7-0.3C210.4,586.4,210.6,586.6,210.9,586.6L210.9,586.6z"/>
<path id="XMLID_2604_" class="st3" d="M218.5,572.6c-0.2-0.3-0.4-0.6-0.6-0.9c0.3,0.2,0.6,0.4,0.9,0.6
	C218.9,572.3,218.5,572.6,218.5,572.6z"/>
<path id="XMLID_2603_" class="st3" d="M286.7,569.3c0.2-0.2,0.4-0.5,0.6-0.7c0,0.1,0,0.3-0.1,0.4C287,569.1,286.8,569.2,286.7,569.3
	L286.7,569.3z"/>
<g id="XMLID_76_">
</g>
<g id="XMLID_284_">
	<path id="XMLID_1_" class="st0" d="M597.3,621.6c-1.6,0-3.1,0.2-4.7,0.4L460.6,336c7.5-6.1,12.3-15.3,12.3-25.7
		c0-18.3-14.8-33.1-33.1-33.1c-2.1,0-4.1,0.2-6.1,0.6l-75.3-163c5.3-5.9,8.5-13.6,8.5-22.1c0-18.3-14.8-33.1-33.1-33.1
		s-33.1,14.8-33.1,33.1c0,8.5,3.2,16.2,8.4,22L234,277.7c-1.9-0.3-3.8-0.5-5.8-0.5c-18.3,0-33.1,14.8-33.1,33.1
		c0,10.3,4.7,19.5,12.1,25.6L75.4,621.1c-18.2,0.1-32.9,14.9-32.9,33.1c0,18.3,14.8,33.1,33.1,33.1c14.8,0,27.3-9.7,31.5-23.1
		l193.9,0.9c1.7,16.7,15.8,29.7,32.9,29.7c17,0,31-12.8,32.9-29.3l199.6,1c4.7,12.5,16.8,21.3,30.9,21.3c18.3,0,33.1-14.8,33.1-33.1
		C630.4,636.4,615.6,621.6,597.3,621.6z M260.9,305.8c-0.9-6.8-3.9-12.9-8.3-17.7l75.2-162.9c2,0.4,4,0.6,6.1,0.6c2,0,4-0.2,5.9-0.6
		l75.3,163.1c-4.4,5-7.4,11.2-8.2,18.2L260.9,305.8z M228.1,343.4c12.2,0,22.8-6.6,28.5-16.3l155.1,0.7c5.8,9.4,16.2,15.6,28,15.6
		c0.2,0,0.5,0,0.7,0l133.1,288.2c-3.7,3.8-6.5,8.4-8,13.6l-203.7-1c-5.9-9.3-16.2-15.5-28-15.5c-11.7,0-22,6.1-27.8,15.3l-199.4-1
		c-2.2-6-6-11.2-11-15l131.4-284.6C227.5,343.3,227.8,343.4,228.1,343.4z"/>
	<linearGradient id="XMLID_40_" gradientUnits="userSpaceOnUse" x1="37.8469" y1="377.1715" x2="635.0555" y2="377.1715">
		<stop  offset="0" style="stop-color:#7CA5BE"/>
		<stop  offset="1" style="stop-color:#E8D1C7"/>
	</linearGradient>
	<path id="XMLID_5_" class="st5" d="M333.9,699.5c-18,0-33.2-12.5-36.9-29.7l-186.6-0.9C104.6,682.8,91,692,75.6,692
		c-20.8,0-37.8-16.9-37.8-37.8c0-19.7,15.2-36,34.5-37.6L201.4,337c-7.1-7.1-11.1-16.6-11.1-26.7c0-20.8,16.9-37.8,37.8-37.8
		c1,0,2,0,3,0.1l72.6-157.3c-4.9-6.5-7.6-14.5-7.6-22.7c0-20.8,16.9-37.8,37.8-37.8c20.8,0,37.8,16.9,37.8,37.8
		c0,8.3-2.7,16.3-7.7,22.9l72.6,157.2c1.1-0.1,2.2-0.2,3.3-0.2c20.8,0,37.8,16.9,37.8,37.8c0,10.2-4.1,19.8-11.3,26.9l129.2,279.7
		c0.6,0,1.2-0.1,1.8-0.1c20.8,0,37.8,16.9,37.8,37.8c0,20.8-16.9,37.8-37.8,37.8c-14.5,0-27.7-8.5-34-21.3l-192.6-0.9
		C366.9,687.1,351.7,699.5,333.9,699.5z M103.7,659.5l201.5,1l0.4,4.2c1.5,14.5,13.6,25.5,28.2,25.5c14.5,0,26.6-10.8,28.2-25.2
		l0.5-4.2l207.1,1l1.1,3c4.2,11,14.8,18.3,26.5,18.3c15.7,0,28.4-12.7,28.4-28.4s-12.7-28.4-28.4-28.4c-1.2,0-2.5,0.1-4,0.3
		l-3.5,0.5l-135-292.4l2.8-2.3c6.7-5.4,10.6-13.5,10.6-22.1c0-15.7-12.7-28.4-28.4-28.4c-1.7,0-3.4,0.2-5.2,0.5l-3.6,0.7
		l-78.1-169.1l2.1-2.3c4.7-5.2,7.3-12,7.3-19c0-15.7-12.7-28.4-28.4-28.4c-15.7,0-28.4,12.7-28.4,28.4c0,7,2.6,13.7,7.2,18.9
		l2.1,2.3L236.7,283l-3.6-0.6c-1.8-0.3-3.4-0.5-5-0.5c-15.7,0-28.4,12.7-28.4,28.4c0,8.5,3.8,16.5,10.4,21.9l2.8,2.3L78.4,625.8
		l-3,0c-15.6,0.1-28.2,12.8-28.2,28.4c0,15.7,12.7,28.4,28.4,28.4c12.4,0,23.3-8,27.1-19.8L103.7,659.5z M569.1,649.8l-209.8-1
		l-1.4-2.2c-5.2-8.4-14.2-13.3-24-13.3c-9.7,0-18.6,4.9-23.9,13.1l-1.4,2.2l-205.2-1l-1.1-3.1c-1.9-5.1-5.1-9.5-9.4-12.9l-3-2.3
		l134.3-290.8l3.1,0.1c0.2,0,0.4,0,0.6,0l0.3,0c10,0,19.4-5.4,24.5-14l1.4-2.3l160.4,0.8l1.4,2.2c5.2,8.4,14.2,13.4,24.1,13.4
		c0.3,0,0.4,0,0.6,0l3.1-0.1l1.3,2.8l134.4,291.2l-2.3,2.3c-3.2,3.3-5.6,7.3-6.9,11.7L569.1,649.8z M364.4,639.5l197.9,1
		c1.4-3.5,3.4-6.8,5.8-9.7L437.5,348c-11.3-0.7-21.6-6.3-28.3-15.5l-150.1-0.7c-6.6,9.6-17.4,15.7-29.1,16.3L101.4,626.7
		c3.5,3.3,6.4,7.2,8.4,11.6l193.8,0.9c7.1-9.6,18.3-15.3,30.3-15.3C346.1,623.9,357.3,629.7,364.4,639.5z M411.1,311.2l-154.4-0.7
		l-0.6-4c-0.8-5.7-3.2-10.9-7.1-15.2l-2.1-2.3l78.1-169.1l3.6,0.7c3.6,0.7,6.6,0.7,10.3,0l3.6-0.6l78.1,169.2l-2,2.3
		c-3.9,4.4-6.4,9.8-7,15.6L411.1,311.2z M264.7,301.1l138.3,0.7c1.2-5.1,3.4-9.9,6.6-14.2L337,130.3c-2.1,0.2-4.2,0.2-6.4,0
		l-72.5,157.1C261.2,291.5,263.5,296.1,264.7,301.1z"/>
</g>
</svg>
