<?xml version="1.0" encoding="utf-8"?>
<!-- Generator: Adobe Illustrator 19.0.0, SVG Export Plug-In . SVG Version: 6.00 Build 0)  -->
<svg version="1.1" id="Layer_1" xmlns="http://www.w3.org/2000/svg" xmlns:xlink="http://www.w3.org/1999/xlink" x="0px" y="0px"
	 viewBox="26 0 664 792" style="enable-background:new 26 0 664 792;" xml:space="preserve">
<style type="text/css">
	.st0{fill:#FFFFFF;}
	.st1{fill:#738DBA;}
	.st2{fill:#F4F5F5;}
	.st3{fill:#A5B6D6;}
	.st4{fill:url(#XMLID_2_);}
	.st5{fill:url(#XMLID_3_);}
	.st6{enable-background:new    ;}
	.st7{fill:url(#XMLID_4_);}
	.st8{fill:#FFFFFF;stroke:url(#XMLID_5_);stroke-width:2;stroke-miterlimit:10;}
</style>
<path id="XMLID_2798_" class="st0" d="M449.1,332c-2.8-0.7-0.3-2.7-1-4.2c-4.4-8.8-8.4-17.8-12.6-26.8c-0.9-1.9-1.9-3.8-4.5-3.6
	c1.4-4.8-0.5-8.9-2.5-13.2c-9.9-21.2-19.6-42.5-29.5-63.7c-2.1-4.5-3.1-10-9.3-11.2c-0.4-0.1-0.8-0.4-1-0.8
	c-1.6-3.7-4.7-3.1-7.9-3.1c-28.2,0.1-56.4,0.1-84.6,0c-3.3,0-6.1-0.3-8,3.2c-0.5,0.9-2,1.7-3.2,1.8c-2.2,0.2-3,1.4-3.8,3.2
	c-8.4,18.5-17,36.9-25.4,55.4c-3.6,7.8-7,15.6-10.4,23.4c0,0.6,0.1,1.2-0.1,1.6c-3.2,4.6-4.8,10-7.4,14.9c-2.3,4.2-4,8.6-5.9,12.9
	c-9,19.2-18,38.4-27,57.6c-1.6,3.4-0.3,5.5,3.4,5.5c6.2,0.1,12.3,0,18.5,0c8.5,0,17,0,25.5-0.1c25.2,0,50.5,0,75.7,0.1
	c1.7,0,3-0.3,4.3-1.8c3.6-4.3,8.6-4.3,12.3-0.1c1.1,1.3,2.2,1.9,3.9,1.9c26.5-0.1,53-0.1,79.5-0.2c8.3,0,16.6,0,24.9,0.1
	c4.9,0,9.8,0.1,14.7,0.1c5.4,0,6.7-2,4.4-7c-3.1-6.7-6.2-13.4-9.3-20.1c-3.9-8.5-7.8-17-11.8-25.4
	C450.6,332.3,450.5,329.6,449.1,332z M291.8,199.7c30.5,0,61.1,0.1,91.6,0.1c0.4,0,0.9,0,1.3-0.1c2.2-0.6,3.6-1.6,2.3-4.2
	c-4.5-11.4-10.1-22.3-15.2-33.4c-1.5-3.2-2.6-6.7-5-9.5c-0.2-0.8-0.2-1.7-0.5-2.4c-8.7-19-17.5-37.9-26.3-56.8
	c-0.4-0.9-0.7-2.1-1.8-2.2c-1.4-0.1-1.6,1.3-2,2.3c-5.8,12.6-11.7,25.2-17.3,37.8c-2.9,6.5-6.5,12.7-8.5,19.6
	c-0.3,0.3-0.7,0.5-0.9,0.9c-6,13-12,26-17.9,39.1c-0.8,1.7-2.1,3.3-1.4,5.5c-0.1,0.2-0.1,0.4-0.1,0.6
	C289.1,198.9,289.2,199.1,291.8,199.7z"/>
<path id="XMLID_2667_" class="st1" d="M290.2,197c0-0.2,0-0.4,0.1-0.6c5.4-1.4,10.9-2.4,16.1-4.5c4.4-1.8,6.6-4.7,7.4-9.2
	c1.4-8,1.6-16.1,1.7-24.2c0.1-4-1.4-6.3-5-7.5c2-6.9,5.6-13.1,8.5-19.6c5.6-12.7,11.5-25.2,17.3-37.8c0.4-1,0.6-2.4,2-2.3
	c1.1,0.1,1.4,1.3,1.8,2.2c8.8,18.9,17.6,37.9,26.3,56.8c0.3,0.7,0.3,1.6,0.5,2.4c-1.2,0.4-1.9,1.2-1.9,2.5
	c0.1,9.2-0.8,18.5,1.2,27.6c0.8,3.8,2.2,7.2,6.3,8.7c4.7,1.7,9.4,3.6,14.4,4.2c1.3,2.5-0.1,3.6-2.3,4.2c-0.4,0.1-0.8,0.1-1.3,0.1
	c-30.5,0-61.1-0.1-91.6-0.1C291.7,198.5,291.1,197.6,290.2,197z"/>
<path id="XMLID_2666_" class="st2" d="M245.4,292.5c2.2-0.4,3.1,0.3,3.5,2.7c2,14.7,2.6,29.4,0.1,44.2c-2.4,13.9,0,27.5,2.7,41.1
	c0.3,1.5,0.5,3,0.7,4.5c-8.5,0-17,0-25.5,0.1c0.7-6.1,0.8-12.2,1-18.3c0.1-4.7,1.1-9.4,1.2-14.1c0.3-10.3,2.2-20.4,2.9-30.7
	c1.9-4.3,3.6-8.8,5.9-12.9c2.7-4.9,4.2-10.3,7.4-14.9C245.5,293.8,245.3,293.1,245.4,292.5z"/>
<path id="XMLID_2665_" class="st2" d="M427.9,385c1.4-12.2,4.8-24.2,3.7-36.6c-0.8-8.5-1.7-16.9-2.3-25.4c-0.6-8.5,0.6-17,1.6-25.5
	c2.6-0.2,3.6,1.7,4.5,3.6c4.2,8.9,8.2,17.9,12.6,26.8c0.7,1.5-1.8,3.5,1,4.2c2,17.6,3.4,35.3,3.7,53C444.5,385,436.2,385,427.9,385z
	"/>
<path id="XMLID_2662_" class="st3" d="M310.5,150.9c3.6,1.2,5.1,3.5,5,7.5c-0.1,8.1-0.4,16.2-1.7,24.2c-0.8,4.5-3,7.5-7.4,9.2
	c-5.2,2.1-10.7,3.1-16.1,4.5c-0.7-2.1,0.6-3.8,1.4-5.5c5.9-13.1,11.9-26.1,17.9-39.1C309.8,151.4,310.2,151.2,310.5,150.9z"/>
<path id="XMLID_2661_" class="st3" d="M386.9,195.5c-5-0.6-9.7-2.5-14.4-4.2c-4.1-1.5-5.5-5-6.3-8.7c-2-9.1-1.1-18.4-1.2-27.6
	c0-1.3,0.7-2.1,1.9-2.5c2.4,2.8,3.5,6.3,5,9.5C376.9,173.2,382.5,184.1,386.9,195.5z"/>
<path id="XMLID_2660_" class="st3" d="M290.2,197c0.9,0.7,1.4,1.6,1.6,2.7C289.2,199.1,289.1,198.9,290.2,197z"/>
<path id="XMLID_2626_" class="st2" d="M316.6,235.4c0.5-2.7-0.7-4.3-0.1-6.2c2.5-7.5,7.2-9,13.4-4.3c1.1,0.9,2.2,1.7,3.3,2.6
	c3.7,3.1,7.6,3.2,11.5,0.3c1.6-1.2,3-2.5,4.6-3.6c5.8-4,11.8-1.3,12.2,5.8c0.2,3.6,1.1,3.8,3.7,1.9c5.7-4,11.2-8,11.7-15.9
	c0.1-1.6,1.4-2,2.8-1.9c2.5,0.3,5.7,0.5,6,3.5c0.3,3.1,2.3,4.2,4.3,5.6c4.1,2.9,7.8,6.1,6.9,12c0,0.1-0.1,0.3,0,0.4
	c3.9,6.1,4.8,13.2,6.1,20.1c0.2,0.9,1.1,1.8,1.2,2.7c1.3,15.1,9.1,29.4,5.4,45.1c-0.8,3.2,0.7,6.4,1.1,9.5c0.5,3.9,0.6,7.7-0.2,11.7
	c-1.4,7.4-2.4,14.8-1.2,22.4c1.1,7.2,0.1,14.6-2.6,21.5c-4.4,11.1-16.3,13.9-27.7,8.7c-12.4-5.6-19.6-16.1-23.5-28.7
	c-1.9-6.3-4.3-12.1-8.2-17.2c-0.6-0.8-1.1-1.6-1.8-2.3c-5.4-4.9-11.8-3.8-16.6,1.8c-5.8,7-6.9,15.8-10.5,23.6
	c-4.6,9.9-11,18.2-21.3,22.9c-5.4,2.4-11.1,3-16.8,1.6c-6-1.4-9.6-5.8-11.3-11.4c-2.2-7-3.4-14-2.1-21.5c1.2-6.6,0.9-13.3-1-19.9
	c-1-3.4-1.4-6.9-0.5-10.3c2.1-8.3,0-16.6,0-24.9c0-2.3-0.2-4.7,0.8-6.6c4-7.2,2.4-15.7,5-23.1c2-5.6,3.5-11.2,4.2-17
	c0.2-1.2,0.6-2.5,1.2-3.6c1.5-2.6,2.7-5,2.6-8.4c-0.1-3.9,3.2-6.7,6.4-8.9c2.2-1.5,4.2-2.7,4.7-5.8c0.5-3.2,3.7-3,6.1-3.3
	c2.7-0.4,2.4,2,2.8,3.7c1.2,4.9,4.4,8.4,8.2,11.4C310.3,231.6,313.3,233.3,316.6,235.4z M371.7,354.8c0-0.1,0-0.2-0.1-0.3
	c0-0.1-0.1-0.1-0.2-0.1C371.6,354.6,371.7,354.7,371.7,354.8c0.1,0.1,0.1,0.2,0.2,0.3h0.2C372,355,371.9,354.9,371.7,354.8z
	 M309.4,359c-1.6,0-2.4,1.3-3.4,2.3c-3.3,3.6-7.4,5.9-11.8,7.9c-6.2,2.7-11.2,1.8-16.1-2.9c-2.2-2.1-4.4-4.2-6.3-6.7
	c1.1,4.5,2.7,8.7,6.6,11.6c3.3,2.4,7,4.5,11.2,3.5C298.7,372.7,304.4,366.3,309.4,359c0.1,0,0.3-0.1,0.3-0.1c0.1,0,0-0.2,0-0.3
	C309.7,358.7,309.5,358.9,309.4,359z M303.4,355.5c-1.6-0.1-2.9,0.9-4.3,1.5c-9.8,3.9-18.1,2.5-23.8-4c-1.4-1.5-2.5-3.3-3.8-4.9
	c-0.1-0.1-0.2-0.1-0.3-0.2c0.1,0.1,0.2,0.1,0.4,0.2c0.9,8.7,6.6,13.5,14,16.6c6.2,2.6,10.3-1.4,14.4-5c1.3-1.2,2.5-2.6,3.7-4
	c0.1-0.2,0.2-0.3,0.3-0.5C303.8,355.3,303.6,355.4,303.4,355.5z M275.8,340.4c-0.2-0.1-0.3-0.2-0.5-0.3c0.1,0.2,0.2,0.3,0.3,0.5
	c-0.2,2.4,1.6,4,3,5.3c8.5,8.1,11.4,9.4,20.8,4.3c5.1-2.8,9-6.9,12.6-11.4c0.1,0,0.2-0.1,0.3-0.1c0,0,0-0.1,0-0.2
	c-0.1,0.1-0.2,0.2-0.3,0.4c-1.9-0.3-3.5,0.7-5.2,1.4C296.5,344.3,286.1,345.6,275.8,340.4z M270.6,319.2c-0.2,3.3,1.2,6,3.4,8.3
	c11,11,17.1,11.2,31.5,6.5c8.6-2.8,14.8-9.5,22.8-13.3c3.9-1.8,2.9-4.4,1.9-6.7c-1.3-3.1-3.6-0.4-5.3-0.1c-1.5,0.3-2.8,1.2-4.2,1.9
	c-9.7,5.1-20,7.1-30.9,6.1c-5.3-0.5-10.1-2.2-14.5-5c-1.2-0.8-1.9-3-3.7-2C270.1,315.7,270.7,317.7,270.6,319.2z M295.9,315.2
	c9.6-0.8,20.7-4.7,31.8-8.4c1.7-0.6,3.1-7.4,1.6-9.1c-1.9-2.2-3.3,0.4-4.9,1c-0.9,0.3-1.7,0.9-2.6,1.3c-14.8,5.7-35.9,3.2-46.3-12.3
	c-0.6-0.9-1.1-2.6-2.6-2.4c-1,0.1-1.1,1.5-1.4,2.4C268.7,300.4,280.7,315.3,295.9,315.2z M406.2,319.5c0-1.6-1-4.7-1.5-4.8
	c-0.8-0.3-1.3,0.4-1.8,0.8c-9.3,7.7-20.3,7-31.2,5.9c-7-0.7-12.9-4.5-19.2-7.1c-2.4-1-3.8-1.3-5.1,1.8c-1.1,2.7-0.8,3.7,1.7,5.1
	c9.3,5.4,17.6,12.2,28.5,14.7c10,2.3,17.5-1.1,24.2-7.8C404.3,325.9,405.8,322.8,406.2,319.5z M380.2,315.2
	c7.2,0.1,9.7-0.8,14.7-4.5c7.8-5.7,12.1-15.3,10-22.5c-0.3-1-0.2-2.6-1.4-2.9c-1.3-0.3-1.7,1.2-2.4,2c-4.5,5.5-9.2,10.6-16.2,12.8
	c-11.2,3.5-22.2,4-33-1.6c-0.8-0.4-1.7-1.3-2.7-0.5c-1.2,1-0.2,8.8,1.3,9.3C360.9,311,371.2,314.4,380.2,315.2z M278.6,266.1
	c0.4,5.3,1.4,9.5,2.9,13.8c2.3,6.9,6.7,11.6,13.9,13.1c10.6,2.3,21,1.9,31.2-2.6c3-1.4,2.3-3.4,2.2-5.5c-0.2-2.4-2.2-1.6-3.6-1.6
	c-5.9-0.2-11.8,0.9-17.6-0.5C296.7,280,287.1,274.8,278.6,266.1z M398,266.2c-2.9,2.5-4.9,4.4-7.1,6.1c-11.2,8.4-23.6,12.4-37.7,11
	c-1.5-0.2-4-1.1-4.1,2c-0.1,2.2-0.7,4.4,2.5,5.8c9,4,18.2,3.7,27.6,2.3c6.7-1,11.7-4.4,14.6-10.5C396.2,277.9,397.1,272.5,398,266.2
	z M283,243.2c-1,3.6-1.6,6.2-1,9.1c2.2,9.3,17.3,21.6,27,21.7c5,0,10.1-0.2,15.1,0.1c3.6,0.2,4.8-0.8,4.8-4.6c0-3.6-1.8-4.2-4.4-4.7
	C308.7,262,294,256.9,283,243.2z M393.2,243.9c-2.9,2.7-5.6,5.5-8.6,8c-9.1,7.6-20.3,10.4-31.6,12.7c-1.2,0.3-2.5,0.3-3.1,1.7
	c-1.8,4.5,0.2,7.7,5.1,7.7c3.1,0,6.2-0.2,9.2,0.1c5.6,0.5,10.5-1.1,15-4.4c3.2-2.3,6.4-4.6,9.3-7.2
	C394.6,256.9,396.2,250.2,393.2,243.9z M328.7,253.2c0.4-2.4-0.9-3.3-3.1-4c-11.7-3.7-22-9.6-29.7-19.4c-1.4-1.8-2.9-1.8-4.7-0.4
	c-4.8,3.6-5.1,6.3-0.6,11.1c9.6,10.2,22.5,13,35.4,15.8C328.4,256.7,328.9,255.3,328.7,253.2z M349.9,253c0.3,1.2-0.8,3.6,2,3
	c12.5-2.8,24.9-5.9,34-15.9c4.5-4.9,4-7.9-1.5-11.4c-1.5-0.9-2.2-1-3.4,0.4c-7.3,9.3-16.9,15.4-27.9,19.3
	C350.8,249.3,349.4,250.3,349.9,253z M364.5,338.4c2.9,4.7,7.2,7.7,11.2,10.9c10.8,8.7,21.4,0.2,25.4-9.3
	C388.3,346.7,376.4,343.3,364.5,338.4z M373.4,355.5c4.4,8,11.3,10.9,18.2,8.9c6.5-1.9,14.8-11.9,13.1-16.7
	C397.2,361.5,386,360.9,373.4,355.5z M404.2,360.3c-1.4,0.3-1.8,1.7-2.5,2.7c-6,7.8-13,9.5-21.7,5.2c-3.3-1.6-6.3-3.7-9-6.1
	c-0.6-0.5-1.1-1.8-2.3-0.8c3,4.8,9.4,10.3,14,12.1C392.3,377.2,403.2,370.6,404.2,360.3z"/>
<linearGradient id="XMLID_2_" gradientUnits="userSpaceOnUse" x1="247.7769" y1="545.8032" x2="428.8616" y2="364.7186" gradientTransform="matrix(1 0 0 -1 0 792)">
	<stop  offset="0" style="stop-color:#7CA5BE"/>
	<stop  offset="1" style="stop-color:#ABB8B7"/>
</linearGradient>
<path id="XMLID_74_" class="st4" d="M427.9,385c-26.5,0-53,0.1-79.5,0.2c-1.7,0-2.7-0.6-3.9-1.9c-3.7-4.2-8.6-4.2-12.3,0.1
	c-1.3,1.6-2.6,1.8-4.3,1.8c-25.2,0-50.5-0.1-75.7-0.1c-0.2-1.5-0.4-3-0.7-4.5c-2.7-13.6-5.1-27.2-2.7-41.1
	c2.5-14.8,1.9-29.5-0.1-44.2c-0.3-2.5-1.2-3.2-3.5-2.7c3.5-7.8,6.9-15.6,10.4-23.4c8.5-18.5,17-36.9,25.4-55.4
	c0.8-1.8,1.6-3,3.8-3.2c1.1-0.1,2.7-0.9,3.2-1.8c1.8-3.5,4.7-3.2,8-3.2c28.2,0.2,56.4,0.1,84.6,0c3.2,0,6.3-0.6,7.9,3.1
	c0.2,0.3,0.6,0.7,1,0.8c6.2,1.2,7.2,6.7,9.3,11.2c9.9,21.2,19.6,42.5,29.5,63.7c2,4.3,3.9,8.4,2.5,13.2c-1.1,8.5-2.3,16.9-1.6,25.5
	c0.6,8.5,1.5,17,2.3,25.4C432.8,360.8,429.3,372.8,427.9,385z M316.6,235.4c-3.3-2.2-6.4-3.8-9.1-6c-3.8-3-7-6.6-8.2-11.4
	c-0.4-1.7-0.1-4.1-2.8-3.7c-2.4,0.3-5.6,0.2-6.1,3.3s-2.5,4.4-4.7,5.8c-3.2,2.2-6.5,4.9-6.4,8.9c0.1,3.4-1.1,5.8-2.6,8.4
	c-0.6,1.1-1,2.3-1.2,3.6c-0.7,5.8-2.2,11.4-4.2,17c-2.6,7.5-1,15.9-5,23.1c-1.1,2-0.8,4.4-0.8,6.6c-0.1,8.3,2,16.6,0,24.9
	c-0.9,3.5-0.4,7,0.5,10.3c1.9,6.6,2.1,13.3,1,19.9c-1.3,7.5-0.1,14.5,2.1,21.5c1.8,5.6,5.3,10,11.3,11.4c5.7,1.4,11.3,0.8,16.8-1.6
	c10.3-4.6,16.7-13,21.3-22.9c3.6-7.8,4.7-16.6,10.5-23.6c4.7-5.7,11.1-6.8,16.6-1.8c0.7,0.6,1.2,1.5,1.8,2.3c4,5.2,6.3,11,8.2,17.2
	c3.9,12.7,11.1,23.1,23.5,28.7c11.4,5.2,23.3,2.4,27.7-8.7c2.7-6.9,3.7-14.2,2.6-21.5c-1.2-7.7-0.2-15,1.2-22.4
	c0.8-3.9,0.7-7.7,0.2-11.7c-0.4-3.2-1.9-6.3-1.1-9.5c3.8-15.7-4-30-5.4-45.1c-0.1-0.9-1-1.7-1.2-2.7c-1.4-6.9-2.2-14-6.1-20.1
	c-0.1-0.1,0-0.3,0-0.4c0.9-5.8-2.7-9.1-6.9-12c-2-1.4-4-2.5-4.3-5.6c-0.3-3-3.5-3.1-6-3.5c-1.3-0.2-2.7,0.2-2.8,1.9
	c-0.5,7.9-6,11.9-11.7,15.9c-2.7,1.9-3.6,1.7-3.7-1.9c-0.4-7.1-6.4-9.9-12.2-5.8c-1.6,1.1-3,2.5-4.6,3.6c-3.8,2.9-7.8,2.7-11.5-0.3
	c-1.1-0.9-2.2-1.7-3.3-2.6c-6.2-4.8-10.9-3.2-13.4,4.3C315.9,231.2,317.2,232.8,316.6,235.4z M204.9,379.6c-1.6,3.4-0.3,5.5,3.4,5.5
	c6.2,0.1,12.3,0,18.5,0c0.7-6.1,0.8-12.2,1-18.3c0.1-4.7,1.1-9.4,1.2-14.1c0.3-10.3,2.2-20.4,2.9-30.7
	C222.9,341.2,213.9,360.4,204.9,379.6z M467.5,385.1c5.4,0,6.7-2,4.4-7c-3.1-6.7-6.2-13.4-9.3-20.1c-3.9-8.5-7.8-17-11.8-25.4
	c-0.1-0.3-0.3-3-1.7-0.6c2,17.6,3.4,35.3,3.7,53C457.7,385.1,462.6,385.1,467.5,385.1z M274,327.4c11,11,17.1,11.2,31.5,6.5
	c8.6-2.8,14.8-9.5,22.8-13.3c3.9-1.8,2.9-4.4,1.9-6.7c-1.3-3.1-3.6-0.4-5.3-0.1c-1.5,0.3-2.8,1.2-4.2,1.9c-9.7,5.1-20,7.1-30.9,6.1
	c-5.3-0.5-10.1-2.2-14.5-5c-1.2-0.8-1.9-3-3.7-2c-1.5,0.8-1,2.8-1.1,4.3C270.4,322.5,271.8,325.2,274,327.4z M327.7,306.8
	c1.7-0.6,3.1-7.4,1.6-9.1c-1.9-2.2-3.3,0.4-4.9,1c-0.9,0.3-1.7,0.9-2.6,1.3c-14.8,5.7-35.9,3.2-46.3-12.3c-0.6-0.9-1.1-2.6-2.6-2.4
	c-1,0.1-1.1,1.5-1.4,2.4c-2.9,12.7,9.1,27.7,24.3,27.6C305.5,314.4,316.6,310.5,327.7,306.8z M404.7,314.7c-0.8-0.3-1.3,0.4-1.8,0.8
	c-9.3,7.7-20.3,7-31.2,5.9c-7-0.7-12.9-4.5-19.2-7.1c-2.4-1-3.8-1.3-5.1,1.8c-1.1,2.7-0.8,3.7,1.7,5.1c9.3,5.4,17.6,12.2,28.5,14.7
	c10,2.3,17.5-1.1,24.2-7.8c2.4-2.4,3.9-5.4,4.3-8.7C406.2,318,405.2,314.9,404.7,314.7z M394.9,310.7c7.8-5.7,12.1-15.3,10-22.5
	c-0.3-1-0.2-2.6-1.4-2.9c-1.3-0.3-1.7,1.2-2.4,2c-4.5,5.5-9.2,10.6-16.2,12.8c-11.2,3.5-22.2,4-33-1.6c-0.8-0.4-1.7-1.3-2.7-0.5
	c-1.2,1-0.2,8.8,1.3,9.3c10.3,3.6,20.7,7,29.7,7.8C387.4,315.3,389.9,314.4,394.9,310.7z M281.4,279.9c2.3,6.9,6.7,11.6,13.9,13.1
	c10.6,2.3,21,1.9,31.2-2.6c3-1.4,2.3-3.4,2.2-5.5c-0.2-2.4-2.2-1.6-3.6-1.6c-5.9-0.2-11.8,0.9-17.6-0.5c-10.9-2.6-20.5-7.8-29-16.6
	C279,271.4,280,275.6,281.4,279.9z M390.9,272.3c-11.2,8.4-23.6,12.4-37.7,11c-1.5-0.2-4-1.1-4.1,2c-0.1,2.2-0.7,4.4,2.5,5.8
	c9,4,18.2,3.7,27.6,2.3c6.7-1,11.7-4.4,14.6-10.5c2.4-5,3.3-10.3,4.2-16.6C395.1,268.7,393.1,270.6,390.9,272.3z M282,252.3
	c2.2,9.3,17.3,21.6,27,21.7c5,0,10.1-0.2,15.1,0.1c3.6,0.2,4.8-0.8,4.8-4.6c0-3.6-1.8-4.2-4.4-4.7c-15.9-2.8-30.6-7.9-41.6-21.6
	C282,246.8,281.4,249.4,282,252.3z M384.6,251.9c-9.1,7.6-20.3,10.4-31.6,12.7c-1.2,0.3-2.5,0.3-3.1,1.7c-1.8,4.5,0.2,7.7,5.1,7.7
	c3.1,0,6.2-0.2,9.2,0.1c5.6,0.5,10.5-1.1,15-4.4c3.2-2.3,6.4-4.6,9.3-7.2c6-5.5,7.7-12.3,4.7-18.6
	C390.3,246.6,387.6,249.4,384.6,251.9z M325.7,249.1c-11.7-3.7-22-9.6-29.7-19.4c-1.4-1.8-2.9-1.8-4.7-0.4
	c-4.8,3.6-5.1,6.3-0.6,11.1c9.6,10.2,22.5,13,35.4,15.8c2.4,0.5,2.9-0.9,2.7-3C329.2,250.8,327.9,249.8,325.7,249.1z M351.9,255.9
	c12.5-2.8,24.9-5.9,34-15.9c4.5-4.9,4-7.9-1.5-11.4c-1.5-0.9-2.2-1-3.4,0.4c-7.3,9.3-16.9,15.4-27.9,19.3c-2.3,0.8-3.7,1.8-3.2,4.5
	C350.2,254.2,349.1,256.6,351.9,255.9z M375.7,349.3c10.8,8.7,21.4,0.2,25.4-9.3c-12.9,6.7-24.7,3.3-36.7-1.6
	C367.4,343.1,371.7,346.1,375.7,349.3z M311.9,338.8c-1.9-0.3-3.5,0.7-5.2,1.4c-10.3,4.1-20.6,5.4-31,0.2l-0.2,0.2
	c-0.2,2.4,1.6,4,3,5.3c8.5,8.1,11.4,9.4,20.8,4.3C304.4,347.4,308.3,343.2,311.9,338.8L311.9,338.8z M391.6,364.4
	c6.5-1.9,14.8-11.9,13.1-16.7c-7.4,13.8-18.6,13.2-31.3,7.8C377.7,363.5,384.7,366.4,391.6,364.4z M303.4,355.5
	c-1.6-0.1-2.9,0.9-4.3,1.5c-9.8,3.9-18.1,2.5-23.8-4c-1.4-1.5-2.5-3.3-3.8-4.9l0,0c0.9,8.7,6.6,13.5,14,16.6
	c6.2,2.6,10.3-1.4,14.4-5c1.3-1.2,2.5-2.6,3.7-4L303.4,355.5z M309.4,359c-1.6,0-2.4,1.3-3.4,2.3c-3.3,3.6-7.4,5.9-11.8,7.9
	c-6.2,2.7-11.2,1.8-16.1-2.9c-2.2-2.1-4.4-4.2-6.3-6.7c1.1,4.5,2.7,8.7,6.6,11.6c3.3,2.4,7,4.5,11.2,3.5
	C298.7,372.7,304.4,366.3,309.4,359L309.4,359z M401.7,363c-6,7.8-13,9.5-21.7,5.2c-3.3-1.6-6.3-3.7-9-6.1c-0.6-0.5-1.1-1.8-2.3-0.8
	c3,4.8,9.4,10.3,14,12.1c9.6,3.8,20.4-2.9,21.5-13.1C402.8,360.7,402.5,362,401.7,363z"/>
<path id="XMLID_2609_" class="st3" d="M309.4,359c0.1-0.1,0.3-0.3,0.4-0.4c0,0.1,0,0.2,0,0.3C309.7,358.9,309.5,359,309.4,359
	L309.4,359z"/>
<path id="XMLID_2608_" class="st3" d="M371.7,354.8c0.1,0.1,0.3,0.2,0.4,0.3c-0.1,0-0.2,0-0.2,0C371.9,355,371.8,354.9,371.7,354.8
	L371.7,354.8z"/>
<path id="XMLID_2607_" class="st3" d="M303.4,355.5c0.2-0.1,0.4-0.2,0.5-0.3c-0.1,0.2-0.2,0.3-0.3,0.5L303.4,355.5z"/>
<path id="XMLID_2606_" class="st3" d="M371.8,354.8c-0.1-0.1-0.2-0.2-0.3-0.3c0.1,0,0.2,0,0.2,0.1
	C371.7,354.6,371.7,354.7,371.8,354.8C371.7,354.8,371.8,354.8,371.8,354.8z"/>
<path id="XMLID_2605_" class="st3" d="M271.5,348c-0.1-0.1-0.2-0.1-0.4-0.2C271.3,348,271.4,348,271.5,348
	C271.5,348.1,271.5,348,271.5,348z"/>
<path id="XMLID_2604_" class="st3" d="M275.6,340.6c-0.1-0.2-0.2-0.3-0.3-0.5c0.2,0.1,0.3,0.2,0.5,0.3L275.6,340.6z"/>
<path id="XMLID_2603_" class="st3" d="M311.9,338.8c0.1-0.1,0.2-0.2,0.3-0.4c0,0.1,0,0.2,0,0.2C312.1,338.7,312,338.7,311.9,338.8
	L311.9,338.8z"/>
<linearGradient id="XMLID_3_" gradientUnits="userSpaceOnUse" x1="106.0375" y1="252.9375" x2="571.9552" y2="718.8552" gradientTransform="matrix(1 0 0 -1 0 792)">
	<stop  offset="0" style="stop-color:#27AAE1"/>
	<stop  offset="1" style="stop-color:#336383"/>
</linearGradient>
<path id="XMLID_73_" class="st5" d="M166.3,81.7c55.6,0,97.8,30.2,97.8,89.1c0,45.1-24.7,75.3-61.5,86.9l26.9,32.3L198,354.4
	l-70.6-91.3v118.6H59v-300L166.3,81.7L166.3,81.7z M135.4,214.8c25.8,0,56.7-1.8,56.7-39.3s-30.9-39.3-56.7-39.3h-8v78.6
	L135.4,214.8L135.4,214.8z M514.8,80.3c82.2,0,151.3,62.6,151.3,149.8c0,87.6-79.2,149.7-161.7,149.7l-27.8-23.5l-48.7-99.9V80.3
	H514.8z M506.8,319.2c50.6,0,85.1-38.6,85.5-88.7c0-50.2-34.5-89.1-85.5-89.1h-10.5v177.8H506.8z M657.4,485.5v-56.2
	c0-8.7-7.1-15.8-15.8-15.8H74.8c-8.7,0-15.8,7.1-15.8,15.8v56.2c0,8.7,7.1,15.8,15.8,15.8h566.8
	C650.3,501.4,657.4,494.3,657.4,485.5z M292,201.5c30.5,0,61.1,0.1,91.6,0.1c0.4,0,0.9,0,1.3-0.1c2.2-0.6,3.6-1.6,2.3-4.2
	c-5-0.6-9.7-2.5-14.4-4.2c-4.1-1.5-5.5-5-6.3-8.7c-2-9.1-1.1-18.4-1.2-27.6c0-1.3,0.7-2.1,1.9-2.5c-0.2-0.8-0.2-1.7-0.5-2.4
	c-8.7-19-17.5-37.9-26.3-56.8c-0.4-0.9-0.7-2.1-1.8-2.2c-1.4-0.1-1.6,1.3-2,2.3c-5.8,12.6-11.7,25.2-17.3,37.8
	c-2.9,6.5-6.5,12.7-8.5,19.6c3.6,1.2,5.1,3.5,5,7.5c-0.1,8.1-0.4,16.2-1.7,24.2c-0.8,4.5-3,7.5-7.4,9.2c-5.2,2.1-10.7,3.1-16.1,4.5
	c-0.1,0.2-0.1,0.4-0.1,0.6C291.3,199.5,291.8,200.4,292,201.5z"/>
<g id="XMLID_71_" class="st6">
	<path class="st0" d="M136.4,474.4h-15l-2.6,11.1h-12.6l15.5-51.5h14.8l15.5,51.5h-12.9L136.4,474.4z M134.3,465.6l-5.4-22.7
		l-5.4,22.7H134.3z"/>
	<path class="st0" d="M243.1,439.3l-5.6,6.6c-3.5-2.9-7.3-4.3-11.3-4.3c-2.1,0-3.8,0.4-5.1,1.3s-1.9,2.1-1.9,3.8
		c0,1.1,0.3,2.1,0.8,2.8c0.5,0.7,1.5,1.4,2.9,2c1.4,0.6,3.5,1.4,6.2,2.3c5.3,1.7,9.1,3.8,11.6,6.2c2.5,2.5,3.7,5.9,3.7,10.4
		c0,3.2-0.8,6.1-2.5,8.5c-1.6,2.5-4,4.4-7.1,5.7c-3.1,1.4-6.7,2-10.9,2c-4.2,0-7.9-0.7-11.2-2c-3.2-1.3-6-3.1-8.4-5.4l6.2-6.8
		c2,1.7,4,2.9,6.1,3.8c2.1,0.8,4.4,1.3,6.9,1.3c2.5,0,4.5-0.6,6-1.7s2.2-2.7,2.2-4.6c0-1.3-0.3-2.4-0.8-3.2
		c-0.5-0.9-1.5-1.6-2.8-2.3s-3.3-1.4-5.8-2.2c-5.7-1.7-9.7-3.9-12.2-6.4c-2.4-2.5-3.6-5.7-3.6-9.6c0-3,0.8-5.6,2.4-7.8
		c1.6-2.3,3.8-4,6.6-5.2c2.8-1.2,6-1.8,9.6-1.8c3.9,0,7.2,0.5,10.1,1.6C238.2,435.4,240.8,437.1,243.1,439.3z"/>
	<path class="st0" d="M338.4,439.3l-5.6,6.6c-3.5-2.9-7.3-4.3-11.3-4.3c-2.1,0-3.8,0.4-5.1,1.3s-1.9,2.1-1.9,3.8
		c0,1.1,0.3,2.1,0.8,2.8c0.5,0.7,1.5,1.4,2.9,2c1.4,0.6,3.5,1.4,6.2,2.3c5.3,1.7,9.1,3.8,11.6,6.2c2.5,2.5,3.7,5.9,3.7,10.4
		c0,3.2-0.8,6.1-2.5,8.5c-1.6,2.5-4,4.4-7.1,5.7c-3.1,1.4-6.7,2-10.9,2c-4.2,0-7.9-0.7-11.2-2c-3.2-1.3-6-3.1-8.4-5.4l6.2-6.8
		c2,1.7,4,2.9,6.1,3.8c2.1,0.8,4.4,1.3,6.9,1.3c2.5,0,4.5-0.6,6-1.7s2.2-2.7,2.2-4.6c0-1.3-0.3-2.4-0.8-3.2
		c-0.5-0.9-1.5-1.6-2.8-2.3s-3.3-1.4-5.8-2.2c-5.7-1.7-9.7-3.9-12.2-6.4c-2.4-2.5-3.6-5.7-3.6-9.6c0-3,0.8-5.6,2.4-7.8
		c1.6-2.3,3.8-4,6.6-5.2c2.8-1.2,6-1.8,9.6-1.8c3.9,0,7.2,0.5,10.1,1.6C333.5,435.4,336.1,437.1,338.4,439.3z"/>
	<path class="st0" d="M411.6,485.5h-12.2V434h12.2V485.5z"/>
	<path class="st0" d="M508.4,439.3l-5.6,6.6c-3.5-2.9-7.3-4.3-11.3-4.3c-2.1,0-3.8,0.4-5.1,1.3c-1.2,0.9-1.9,2.1-1.9,3.8
		c0,1.1,0.3,2.1,0.8,2.8s1.5,1.4,2.9,2s3.5,1.4,6.2,2.3c5.3,1.7,9.1,3.8,11.6,6.2c2.5,2.5,3.7,5.9,3.7,10.4c0,3.2-0.8,6.1-2.5,8.5
		c-1.6,2.5-4,4.4-7.1,5.7s-6.7,2-10.9,2s-7.9-0.7-11.2-2c-3.2-1.3-6-3.1-8.4-5.4l6.2-6.8c2,1.7,4,2.9,6.1,3.8
		c2.1,0.8,4.4,1.3,6.9,1.3c2.5,0,4.5-0.6,6-1.7s2.2-2.7,2.2-4.6c0-1.3-0.3-2.4-0.8-3.2c-0.5-0.9-1.5-1.6-2.8-2.3s-3.3-1.4-5.8-2.2
		c-5.7-1.7-9.7-3.9-12.2-6.4c-2.4-2.5-3.6-5.7-3.6-9.6c0-3,0.8-5.6,2.4-7.8c1.6-2.3,3.8-4,6.6-5.2c2.8-1.2,6-1.8,9.6-1.8
		c3.9,0,7.2,0.5,10.1,1.6C503.5,435.4,506.1,437.1,508.4,439.3z"/>
	<path class="st0" d="M603.4,443.3h-12.7v42.1h-12.2v-42.1h-13.3V434h39.4L603.4,443.3z"/>
</g>
<g id="XMLID_76_">
</g>
<linearGradient id="XMLID_4_" gradientUnits="userSpaceOnUse" x1="72.5" y1="270.65" x2="647.6" y2="270.65" gradientTransform="matrix(1 0 0 -1 0 792)">
	<stop  offset="0" style="stop-color:#27AAE1"/>
	<stop  offset="1" style="stop-color:#336383"/>
</linearGradient>
<path id="XMLID_75_" class="st7" d="M86.6,528h-7l-1.2,5.2h-5.9l7.3-24.1h6.9l7.3,24.1h-6L86.6,528z M85.7,523.9l-2.5-10.6
	l-2.5,10.6H85.7z M101.4,533.2h-5.7v-24.1h5.7V533.2z M105.1,520.2h11.1v4.2h-11.1V520.2z M138.2,526.2c0,2.6-0.9,4.4-2.8,5.4
	c-1.8,1.1-4.4,1.6-7.7,1.6H120v-24.1h6.8c3.4,0,6,0.5,7.7,1.4c1.8,1,2.7,2.5,2.7,4.7c0,1.4-0.4,2.6-1.3,3.4
	c-0.8,0.9-1.9,1.5-3.1,1.8c1.6,0.3,2.9,0.9,3.9,1.8S138.2,524.4,138.2,526.2z M125.7,518.8h2.1c2.4,0,3.6-1,3.6-2.9
	c0-1-0.3-1.7-1-2.1c-0.6-0.4-1.7-0.6-3.1-0.6h-1.7L125.7,518.8L125.7,518.8z M132.4,525.9c0-2.2-1.4-3.3-4.2-3.3h-2.5v6.5h2.1
	c1.5,0,2.6-0.2,3.4-0.7C132,527.9,132.4,527.1,132.4,525.9z M152.7,528h-7l-1.2,5.2h-5.9l7.3-24.1h6.9l7.3,24.1h-6L152.7,528z
	 M151.7,523.9l-2.5-10.6l-2.5,10.6H151.7z M177.8,511.6l-2.6,3.1c-1.6-1.3-3.4-2-5.3-2c-1,0-1.8,0.2-2.4,0.6c-0.6,0.4-0.9,1-0.9,1.8
	c0,0.5,0.1,1,0.4,1.3c0.3,0.3,0.7,0.7,1.4,1c0.6,0.3,1.6,0.7,2.9,1.1c2.5,0.8,4.3,1.8,5.4,2.9c1.2,1.1,1.7,2.8,1.7,4.9
	c0,1.5-0.4,2.8-1.1,4c-0.8,1.1-1.9,2-3.3,2.7c-1.4,0.6-3.1,1-5.1,1s-3.7-0.3-5.2-0.9c-1.5-0.6-2.8-1.5-3.9-2.5l2.9-3.2
	c0.9,0.8,1.9,1.4,2.9,1.8c1,0.4,2.1,0.6,3.2,0.6c1.2,0,2.1-0.3,2.8-0.8s1-1.2,1-2.2c0-0.6-0.1-1.1-0.4-1.5c-0.3-0.4-0.7-0.8-1.3-1.1
	s-1.5-0.7-2.7-1c-2.7-0.8-4.6-1.8-5.7-3c-1.1-1.2-1.7-2.7-1.7-4.5c0-1.4,0.4-2.6,1.1-3.7c0.7-1.1,1.8-1.9,3.1-2.4
	c1.3-0.6,2.8-0.9,4.5-0.9c1.8,0,3.4,0.3,4.7,0.8C175.5,509.8,176.7,510.6,177.8,511.6z M195.7,513.2h-8.5v5.8h7.4v4h-7.4v6.1h9.1
	v4.1h-14.8v-24.1h14.8L195.7,513.2z M219,521.1c0,4.5-1.1,7.6-3.3,9.4c-2.2,1.8-5.1,2.7-8.6,2.7h-7.2v-24.1h6.7
	c3.8,0,6.8,0.9,9.1,2.6C217.9,513.4,219,516.5,219,521.1z M205.5,529.1h1.9c1.9,0,3.3-0.6,4.3-1.8s1.5-3.3,1.5-6.3
	c0-2.1-0.2-3.7-0.7-4.8s-1.1-1.9-2-2.3c-0.8-0.4-1.9-0.6-3.1-0.6h-1.8L205.5,529.1L205.5,529.1z M246.5,513.5h-5.9v19.7h-5.7v-19.7
	h-6.2v-4.4h18.4L246.5,513.5z M263.5,513.2H255v5.8h7.4v4H255v6.1h9.1v4.1h-14.8v-24.1h14.8L263.5,513.2z M273.3,528.7h9.4l-0.6,4.5
	h-14.5v-24.1h5.7V528.7z M299.6,513.2h-8.5v5.8h7.4v4h-7.4v6.1h9.1v4.1h-14.8v-24.1h14.8L299.6,513.2z M309.4,524v9.2h-5.7v-24.1
	h7.9c3.3,0,5.8,0.6,7.4,1.8c1.7,1.2,2.5,3,2.5,5.5c0,1.6-0.4,2.8-1.1,3.9c-0.7,1-1.9,1.9-3.5,2.6l6.1,10.2h-6.4l-4.9-9.2L309.4,524
	L309.4,524z M311.8,520.1c1.3,0,2.2-0.3,2.9-0.9c0.6-0.6,1-1.5,1-2.7s-0.3-2-1-2.5s-1.7-0.8-3.1-0.8h-2v6.9H311.8z M336.5,528h-7
	l-1.2,5.2h-5.9l7.3-24.1h6.9l7.3,24.1h-6L336.5,528z M335.5,523.9l-2.5-10.6l-2.5,10.6H335.5z M364.8,521.1c0,4.5-1.1,7.6-3.3,9.4
	c-2.2,1.8-5.1,2.7-8.6,2.7h-7.2v-24.1h6.7c3.8,0,6.8,0.9,9.1,2.6C363.6,513.4,364.8,516.5,364.8,521.1z M351.2,529.1h1.9
	c1.9,0,3.3-0.6,4.3-1.8s1.5-3.3,1.5-6.3c0-2.1-0.2-3.7-0.7-4.8s-1.1-1.9-2-2.3c-0.8-0.4-1.9-0.6-3.1-0.6h-1.8L351.2,529.1
	L351.2,529.1z M373.8,533.2h-5.7v-24.1h5.7V533.2z M398.9,521.2c0,2.6-0.4,4.9-1.3,6.8c-0.9,1.9-2.1,3.3-3.7,4.4
	c-1.6,1-3.6,1.5-5.8,1.5c-2.2,0-4.2-0.5-5.8-1.5c-1.6-1-2.9-2.4-3.7-4.3c-0.9-1.9-1.3-4.2-1.3-6.8s0.4-4.8,1.3-6.7s2.1-3.3,3.7-4.4
	c1.6-1,3.6-1.5,5.8-1.5c3.4,0,6.1,1.1,8,3.3C397.9,514.1,398.9,517.2,398.9,521.2z M383.2,521.2c0,3,0.4,5.1,1.2,6.5
	c0.8,1.3,2,2,3.6,2c1.7,0,2.9-0.7,3.7-2c0.8-1.3,1.2-3.5,1.2-6.5s-0.4-5.1-1.2-6.5c-0.8-1.3-2-2-3.7-2c-1.6,0-2.9,0.7-3.7,2
	C383.6,516.1,383.2,518.2,383.2,521.2z M408,528.7h9.4l-0.6,4.5h-14.5v-24.1h5.7V528.7z M439.2,521.2c0,2.6-0.4,4.9-1.3,6.8
	c-0.9,1.9-2.1,3.3-3.7,4.4c-1.6,1-3.6,1.5-5.8,1.5c-2.2,0-4.2-0.5-5.8-1.5c-1.6-1-2.9-2.4-3.7-4.3c-0.9-1.9-1.3-4.2-1.3-6.8
	s0.4-4.8,1.3-6.7s2.1-3.3,3.7-4.4c1.6-1,3.6-1.5,5.8-1.5c3.4,0,6.1,1.1,8,3.3C438.3,514.1,439.2,517.2,439.2,521.2z M423.5,521.2
	c0,3,0.4,5.1,1.2,6.5c0.8,1.3,2,2,3.6,2c1.7,0,2.9-0.7,3.7-2c0.8-1.3,1.2-3.5,1.2-6.5s-0.4-5.1-1.2-6.5c-0.8-1.3-2-2-3.7-2
	c-1.6,0-2.9,0.7-3.7,2C423.9,516.1,423.5,518.2,423.5,521.2z M458.2,514.5c-0.9-0.6-1.6-1.1-2.4-1.4c-0.7-0.3-1.6-0.4-2.5-0.4
	c-1.8,0-3.2,0.7-4.3,2.1c-1.1,1.4-1.6,3.5-1.6,6.4c0,3.1,0.4,5.3,1.2,6.5c0.8,1.3,2.1,1.9,3.8,1.9c1.2,0,2.3-0.3,3.3-0.8v-5.4h-3.1
	l-0.6-4h9.2v11.9c-1.2,0.8-2.6,1.4-4.1,1.9c-1.5,0.4-3,0.7-4.5,0.7c-3.7,0-6.4-1.1-8.3-3.2c-1.9-2.1-2.8-5.3-2.8-9.4
	c0-2.6,0.5-4.9,1.5-6.8c1-1.9,2.4-3.3,4.1-4.3s3.7-1.5,5.9-1.5c3.1,0,5.8,1,8,3L458.2,514.5z M474.9,524.2v9h-5.7v-9l-7.7-15.1h6.2
	l4.4,10.6l4.4-10.6h6L474.9,524.2z M508.9,511.6l-2.6,3.1c-1.6-1.3-3.4-2-5.3-2c-1,0-1.8,0.2-2.4,0.6c-0.6,0.4-0.9,1-0.9,1.8
	c0,0.5,0.1,1,0.4,1.3s0.7,0.7,1.4,1c0.6,0.3,1.6,0.7,2.9,1.1c2.5,0.8,4.3,1.8,5.4,2.9s1.7,2.8,1.7,4.9c0,1.5-0.4,2.8-1.1,4
	c-0.8,1.1-1.9,2-3.3,2.7c-1.4,0.6-3.1,1-5.1,1s-3.7-0.3-5.2-0.9s-2.8-1.5-3.9-2.5l2.9-3.2c0.9,0.8,1.9,1.4,2.9,1.8
	c1,0.4,2.1,0.6,3.2,0.6c1.2,0,2.1-0.3,2.8-0.8c0.7-0.5,1-1.2,1-2.2c0-0.6-0.1-1.1-0.4-1.5s-0.7-0.8-1.3-1.1c-0.6-0.3-1.5-0.7-2.7-1
	c-2.7-0.8-4.6-1.8-5.7-3s-1.7-2.7-1.7-4.5c0-1.4,0.4-2.6,1.1-3.7c0.7-1.1,1.8-1.9,3.1-2.4c1.3-0.6,2.8-0.9,4.5-0.9
	c1.8,0,3.4,0.3,4.7,0.8C506.6,509.8,507.9,510.6,508.9,511.6z M533.3,521.2c0,2.6-0.4,4.9-1.3,6.8c-0.9,1.9-2.1,3.3-3.7,4.4
	c-1.6,1-3.6,1.5-5.8,1.5c-2.2,0-4.2-0.5-5.8-1.5c-1.6-1-2.9-2.4-3.7-4.3c-0.9-1.9-1.3-4.2-1.3-6.8s0.4-4.8,1.3-6.7s2.1-3.3,3.7-4.4
	c1.6-1,3.6-1.5,5.8-1.5c3.4,0,6.1,1.1,8,3.3C532.3,514.1,533.3,517.2,533.3,521.2z M517.6,521.2c0,3,0.4,5.1,1.2,6.5
	c0.8,1.3,2,2,3.6,2c1.7,0,2.9-0.7,3.7-2s1.2-3.5,1.2-6.5s-0.4-5.1-1.2-6.5c-0.8-1.3-2-2-3.7-2c-1.6,0-2.9,0.7-3.7,2
	C518,516.1,517.6,518.2,517.6,521.2z M542.4,528.7h9.4l-0.6,4.5h-14.5v-24.1h5.7L542.4,528.7L542.4,528.7z M571,529.6
	c-0.7,1.3-1.8,2.3-3.2,3.1c-1.4,0.7-3.1,1.1-5.2,1.1c-3.1,0-5.4-0.8-7-2.3c-1.6-1.6-2.4-3.6-2.4-6.2v-16.1h5.7V525
	c0,1.5,0.3,2.7,0.9,3.5c0.6,0.8,1.5,1.1,2.8,1.1s2.2-0.4,2.8-1.1c0.6-0.8,0.9-1.9,0.9-3.5v-15.8h5.7v16.1
	C572.1,526.9,571.7,528.3,571,529.6z M592.1,513.5h-5.9v19.7h-5.7v-19.7h-6.2v-4.4h18.4L592.1,513.5z M600.7,533.2H595v-24.1h5.7
	V533.2z M625.7,521.2c0,2.6-0.4,4.9-1.3,6.8c-0.9,1.9-2.1,3.3-3.7,4.4c-1.6,1-3.6,1.5-5.8,1.5s-4.2-0.5-5.8-1.5s-2.9-2.4-3.7-4.3
	c-0.9-1.9-1.3-4.2-1.3-6.8s0.4-4.8,1.3-6.7c0.9-1.9,2.1-3.3,3.7-4.4c1.6-1,3.6-1.5,5.8-1.5c3.4,0,6.1,1.1,8,3.3
	C624.8,514.1,625.7,517.2,625.7,521.2z M610,521.2c0,3,0.4,5.1,1.2,6.5c0.8,1.3,2,2,3.6,2c1.7,0,2.9-0.7,3.7-2s1.2-3.5,1.2-6.5
	s-0.4-5.1-1.2-6.5c-0.8-1.3-2-2-3.7-2c-1.6,0-2.9,0.7-3.7,2C610.4,516.1,610,518.2,610,521.2z M640.4,533.2l-6.9-18.6
	c0.2,1.8,0.4,3.4,0.5,4.8c0.1,1.4,0.2,3.1,0.2,5v8.8h-5.1v-24.1h7.1l7.1,18.7c-0.5-3.2-0.8-6.2-0.8-9v-9.7h5.1v24.1L640.4,533.2
	L640.4,533.2z"/>
<linearGradient id="XMLID_5_" gradientUnits="userSpaceOnUse" x1="181" y1="555.6" x2="496.5" y2="555.6" gradientTransform="matrix(1 0 0 -1 0 792)">
	<stop  offset="0" style="stop-color:#7CA5BE"/>
	<stop  offset="1" style="stop-color:#E8D1C7"/>
</linearGradient>
<path id="XMLID_284_" class="st8" d="M477.6,366.7c-0.9,0-1.7,0.1-2.5,0.2l-70.4-152.5c4-3.2,6.6-8.2,6.6-13.7
	c0-9.7-7.9-17.6-17.6-17.6c-1.1,0-2.2,0.1-3.3,0.3l-40.1-86.9c2.8-3.1,4.6-7.3,4.6-11.8c0-9.7-7.9-17.6-17.6-17.6
	s-17.6,7.9-17.6,17.6c0,4.5,1.7,8.6,4.5,11.7l-40.2,87c-1-0.2-2-0.3-3.1-0.3c-9.7,0-17.6,7.9-17.6,17.6c0,5.5,2.5,10.4,6.5,13.6
	l-70.3,152.2c-9.7,0.1-17.5,7.9-17.5,17.6s7.9,17.6,17.6,17.6c7.9,0,14.6-5.2,16.8-12.3l103.4,0.5c0.9,8.9,8.4,15.8,17.6,15.8
	c9.1,0,16.5-6.8,17.5-15.7l106.5,0.5c2.5,6.6,8.9,11.4,16.5,11.4c9.7,0,17.6-7.9,17.6-17.6C495.3,374.6,487.4,366.7,477.6,366.7z
	 M298.2,198.2c-0.5-3.6-2.1-6.9-4.4-9.4l40.1-86.9c1.1,0.2,2.1,0.3,3.2,0.3s2.1-0.1,3.2-0.3l40.2,87c-2.4,2.6-3.9,6-4.4,9.7
	L298.2,198.2z M280.7,218.3c6.5,0,12.1-3.5,15.2-8.7l82.7,0.4c3.1,5,8.6,8.3,15,8.3c0.1,0,0.3,0,0.4,0L465,372c-2,2-3.4,4.5-4.3,7.2
	l-108.6-0.5c-3.1-5-8.6-8.3-14.9-8.3c-6.2,0-11.7,3.3-14.9,8.1L216,378c-1.2-3.2-3.2-6-5.9-8l70.1-151.8
	C280.4,218.3,280.5,218.3,280.7,218.3z"/>
</svg>
